<?xml version="1.0" standalone="no"?>
<!DOCTYPE svg PUBLIC "-//W3C//DTD SVG 20010904//EN"
 "http://www.w3.org/TR/2001/REC-SVG-20010904/DTD/svg10.dtd">
<svg version="1.0" xmlns="http://www.w3.org/2000/svg"
 width="686.000000pt" height="250.000000pt" viewBox="0 0 686.000000 250.000000"
 preserveAspectRatio="xMidYMid meet">

<g transform="translate(0.000000,250.000000) scale(0.100000,-0.100000)"
fill="#000000" stroke="none">
<path d="M0 1250 l0 -1250 3430 0 3430 0 0 1250 0 1250 -3430 0 -3430 0 0
-1250z m6424 794 l26 -27 0 -724 c0 -500 -3 -731 -11 -745 -27 -50 43 -48
-1749 -48 -1421 0 -1676 2 -1705 14 -68 29 -65 -1 -65 771 0 738 1 747 47 774
12 7 529 10 1724 11 l1706 0 27 -26z m-4994 -434 l0 -130 46 33 c41 29 52 32
119 32 83 0 115 -16 150 -76 18 -30 20 -55 23 -236 l3 -203 -80 0 -80 0 -3
181 c-3 176 -4 181 -27 200 -34 28 -75 24 -113 -10 l-33 -29 -5 -169 -5 -168
-80 0 -80 0 -3 353 -2 352 85 0 85 0 0 -130z m650 65 l0 -65 -80 0 -80 0 0 65
0 65 80 0 80 0 0 -65z m-1055 23 l50 -13 3 -67 c2 -38 -1 -68 -5 -68 -4 0 -37
9 -71 20 -71 22 -177 26 -217 8 -28 -12 -41 -45 -31 -76 8 -24 39 -37 136 -57
113 -23 180 -60 208 -115 53 -106 9 -239 -97 -287 -54 -25 -255 -23 -336 3
l-60 20 -3 73 c-3 68 -1 73 15 66 118 -52 240 -70 298 -43 46 21 46 95 1 116
-14 6 -63 20 -111 31 -47 12 -98 27 -113 35 -115 60 -137 216 -43 312 50 50
106 65 226 59 55 -2 123 -10 150 -17z m1385 -88 l0 -70 85 0 85 0 0 -60 0 -60
-85 0 -85 0 0 -116 c0 -63 5 -124 10 -135 9 -16 22 -19 75 -19 l65 0 0 -61 0
-61 -108 3 c-117 4 -146 15 -179 66 -15 22 -19 55 -22 175 l-3 148 -40 0 -39
0 3 58 3 57 38 3 37 3 0 70 0 69 80 0 80 0 0 -70z m-330 -325 l0 -255 -80 0
-80 0 0 255 0 255 80 0 80 0 0 -255z"/>
<path d="M3722 1673 l3 -68 80 0 80 0 3 68 3 67 -86 0 -86 0 3 -67z"/>
<path d="M5040 1608 l0 -132 -27 27 c-60 56 -145 72 -219 38 -179 -81 -179
-421 0 -502 74 -34 159 -18 219 38 l27 27 0 -37 0 -37 80 0 80 0 0 355 0 355
-80 0 -80 0 0 -132z m-71 -179 c19 -7 38 -24 48 -43 22 -41 22 -150 0 -192
-33 -63 -118 -68 -161 -11 -29 39 -30 169 -3 210 28 43 64 54 116 36z"/>
<path d="M3102 1373 l3 -338 88 -3 87 -3 0 146 0 145 140 0 140 0 0 65 0 65
-140 0 -140 0 0 65 0 65 150 0 150 0 0 65 0 65 -240 0 -240 0 2 -337z"/>
<path d="M4285 1534 c-16 -9 -40 -26 -52 -37 l-23 -20 0 31 0 32 -85 0 -85 0
0 -255 0 -255 85 0 85 0 0 155 c0 201 15 235 104 235 60 0 66 -19 66 -217 l0
-173 86 0 85 0 -3 198 c-3 219 -11 252 -72 294 -40 30 -147 36 -191 12z"/>
<path d="M5487 1536 c-114 -41 -170 -124 -170 -251 0 -130 66 -223 183 -255
78 -22 287 -2 327 32 8 6 13 33 13 70 0 53 -2 59 -17 53 -103 -43 -123 -48
-195 -49 -67 -1 -79 2 -102 23 -14 13 -29 36 -35 52 l-10 29 190 0 189 0 0 43
c0 160 -107 267 -265 266 -38 0 -87 -6 -108 -13z m174 -123 c10 -10 21 -30 24
-45 l7 -28 -101 0 c-90 0 -101 2 -101 18 0 20 27 55 55 71 27 16 94 7 116 -16z"/>
<path d="M6230 1539 c-14 -6 -40 -24 -57 -42 l-33 -31 0 37 0 37 -80 0 -80 0
0 -255 0 -255 79 0 79 0 3 148 c4 126 7 152 25 182 30 52 107 71 178 44 14 -5
16 5 16 70 l0 76 -52 -1 c-29 0 -64 -5 -78 -10z"/>
<path d="M3722 1288 l3 -253 83 -3 82 -3 0 256 0 255 -85 0 -85 0 2 -252z"/>
</g>
</svg>
