<svg id="svg" version="1.1" xmlns="http://www.w3.org/2000/svg" xmlns:xlink="http://www.w3.org/1999/xlink" width="400" height="145.77259475218656" viewBox="0, 0, 400,145.77259475218656"><g id="svgg"><path id="path0" d="M134.051 47.958 C 135.225 47.987,137.100 47.987,138.218 47.958 C 139.336 47.929,138.375 47.905,136.083 47.906 C 133.792 47.906,132.877 47.929,134.051 47.958 M114.385 56.125 C 115.651 56.153,117.676 56.153,118.885 56.124 C 120.094 56.096,119.058 56.073,116.583 56.073 C 114.108 56.073,113.119 56.096,114.385 56.125 M149.236 82.417 C 149.236 84.067,149.261 84.719,149.291 83.867 C 149.321 83.014,149.321 81.664,149.291 80.867 C 149.260 80.069,149.235 80.767,149.236 82.417 M49.208 86.119 C 49.460 86.158,49.873 86.158,50.125 86.119 C 50.377 86.081,50.171 86.050,49.667 86.050 C 49.163 86.050,48.956 86.081,49.208 86.119 " stroke="none" fill="#f9a623" fill-rule="evenodd"></path><path id="path1" d="M0.000 72.833 L 0.000 145.667 200.000 145.667 L 400.000 145.667 400.000 72.833 L 400.000 0.000 200.000 0.000 L 0.000 0.000 0.000 72.833 M371.692 24.625 C 371.806 24.740,372.115 24.833,372.379 24.833 C 373.906 24.833,375.873 26.935,376.571 29.311 C 376.943 30.578,376.976 110.874,376.604 111.725 C 376.478 112.014,376.285 112.578,376.175 112.979 C 375.938 113.840,373.943 115.933,373.202 116.097 C 372.953 116.153,372.514 116.303,372.225 116.432 C 371.414 116.794,175.052 116.784,174.574 116.422 C 174.396 116.287,174.096 116.175,173.909 116.172 C 173.137 116.160,170.667 113.814,170.667 113.093 C 170.667 112.944,170.555 112.651,170.418 112.442 C 170.037 111.860,170.033 29.312,170.414 28.731 C 170.553 28.519,170.667 28.208,170.667 28.040 C 170.667 27.196,173.028 25.044,174.119 24.894 C 174.466 24.846,174.900 24.742,175.083 24.662 C 175.267 24.582,175.567 24.484,175.750 24.444 C 176.665 24.244,371.490 24.424,371.692 24.625 M83.460 51.708 C 83.484 55.810,83.536 59.167,83.577 59.167 C 83.617 59.167,84.010 58.825,84.450 58.408 C 85.647 57.272,88.144 55.690,88.766 55.672 C 88.867 55.669,89.203 55.540,89.514 55.385 C 90.449 54.918,95.636 54.981,96.699 55.472 C 97.130 55.671,97.589 55.833,97.720 55.833 C 97.852 55.833,98.053 55.946,98.167 56.083 C 98.281 56.221,98.462 56.333,98.570 56.333 C 98.938 56.333,101.000 58.171,101.000 58.499 C 101.000 58.597,101.107 58.718,101.238 58.769 C 101.369 58.819,101.556 59.060,101.653 59.305 C 101.749 59.550,101.902 59.862,101.992 60.000 C 102.349 60.547,102.833 61.839,102.833 62.247 C 102.833 62.484,102.964 62.878,103.124 63.122 C 103.519 63.726,103.580 85.083,103.188 85.557 C 102.851 85.964,94.334 85.977,93.929 85.571 C 93.698 85.341,93.666 84.347,93.664 77.196 C 93.661 70.835,93.608 68.759,93.414 67.583 C 93.279 66.758,93.168 65.843,93.167 65.549 C 93.165 63.842,90.308 62.085,88.532 62.699 C 88.102 62.847,87.511 63.018,87.219 63.079 C 86.639 63.199,84.948 64.710,84.669 65.359 C 84.577 65.574,84.434 65.862,84.352 66.000 C 83.563 67.324,83.495 68.190,83.498 76.843 C 83.500 83.715,83.460 85.157,83.264 85.426 C 83.039 85.733,82.789 85.750,78.499 85.750 L 73.971 85.750 73.652 85.357 C 73.254 84.865,73.140 44.760,73.536 44.364 C 73.687 44.213,74.953 44.173,78.577 44.206 L 83.417 44.250 83.460 51.708 M121.461 48.027 C 121.500 51.296,121.471 51.839,121.241 52.068 C 120.897 52.412,112.372 52.472,112.033 52.133 C 111.889 51.989,111.833 50.848,111.833 48.047 L 111.833 44.162 116.625 44.206 L 121.417 44.250 121.461 48.027 M217.667 48.083 L 217.667 51.667 222.083 51.667 L 226.500 51.667 226.500 48.083 L 226.500 44.500 222.083 44.500 L 217.667 44.500 217.667 48.083 M294.000 51.968 C 294.000 60.249,293.964 60.557,293.133 59.467 C 292.107 58.121,290.513 56.845,289.000 56.157 C 287.810 55.616,287.454 55.520,285.936 55.327 C 284.041 55.087,281.417 55.321,280.250 55.833 C 279.883 55.995,279.471 56.176,279.333 56.236 C 278.002 56.822,276.917 57.734,275.648 59.333 C 274.242 61.105,274.167 61.212,274.167 61.430 C 274.167 61.538,274.054 61.719,273.917 61.833 C 273.779 61.947,273.667 62.164,273.667 62.315 C 273.667 62.465,273.517 62.868,273.333 63.210 C 273.150 63.552,273.000 63.986,273.000 64.174 C 273.000 64.363,272.898 64.719,272.773 64.967 C 271.939 66.625,271.930 74.485,272.761 76.026 C 272.893 76.269,273.000 76.626,273.000 76.818 C 273.000 77.010,273.150 77.448,273.333 77.790 C 273.517 78.132,273.667 78.535,273.667 78.685 C 273.667 78.836,273.779 79.053,273.917 79.167 C 274.054 79.281,274.167 79.462,274.167 79.570 C 274.167 79.788,274.242 79.895,275.648 81.667 C 276.917 83.266,278.002 84.178,279.333 84.764 C 279.471 84.824,279.883 85.005,280.250 85.165 C 281.913 85.892,286.672 85.948,288.000 85.256 C 288.229 85.136,288.660 84.986,288.958 84.923 C 289.256 84.859,289.500 84.739,289.500 84.657 C 289.500 84.574,289.688 84.459,289.917 84.402 C 290.146 84.344,290.333 84.246,290.333 84.185 C 290.333 84.123,290.560 83.938,290.837 83.774 C 291.390 83.448,292.738 82.133,293.126 81.542 C 293.728 80.624,293.978 81.136,294.042 83.417 L 294.083 84.917 298.542 84.961 L 303.000 85.005 303.000 64.753 L 303.000 44.500 298.500 44.500 L 294.000 44.500 294.000 51.968 M55.095 45.566 C 55.547 45.694,56.442 45.842,57.083 45.895 C 57.725 45.948,58.550 46.102,58.917 46.238 C 59.283 46.374,59.846 46.489,60.167 46.494 C 60.487 46.498,60.965 46.614,61.227 46.751 C 61.490 46.888,61.869 47.000,62.071 47.000 C 63.059 47.000,63.083 47.107,63.083 51.478 C 63.083 56.037,63.090 56.014,61.963 55.675 C 61.085 55.411,60.980 55.372,60.667 55.192 C 60.276 54.967,58.825 54.491,58.018 54.321 C 57.615 54.237,57.203 54.102,57.101 54.021 C 57.000 53.940,56.476 53.821,55.938 53.756 C 55.400 53.691,54.659 53.532,54.292 53.402 C 53.359 53.073,48.009 53.069,47.367 53.397 C 47.119 53.523,46.654 53.683,46.333 53.751 C 44.469 54.149,43.094 57.118,44.243 58.267 C 44.384 58.408,44.500 58.588,44.500 58.667 C 44.500 58.879,45.971 59.833,46.300 59.834 C 46.456 59.835,46.805 59.951,47.076 60.092 C 47.347 60.234,47.909 60.389,48.326 60.437 C 48.742 60.485,49.346 60.626,49.667 60.751 C 49.987 60.875,50.722 61.013,51.298 61.056 C 51.874 61.100,52.437 61.211,52.548 61.302 C 52.659 61.393,53.200 61.522,53.750 61.589 C 54.300 61.655,54.953 61.812,55.200 61.938 C 55.448 62.064,55.860 62.169,56.117 62.172 C 56.373 62.175,56.883 62.323,57.250 62.500 C 57.617 62.677,58.018 62.825,58.141 62.828 C 58.264 62.831,58.564 62.937,58.808 63.065 C 59.051 63.192,59.438 63.380,59.667 63.483 C 59.896 63.586,60.308 63.818,60.583 63.999 C 60.858 64.180,61.233 64.400,61.417 64.488 C 62.168 64.847,63.950 66.804,64.328 67.684 C 64.422 67.904,64.566 68.196,64.648 68.333 C 65.465 69.704,65.895 76.541,65.216 77.358 C 65.105 77.491,64.963 77.920,64.901 78.311 C 64.838 78.702,64.685 79.124,64.560 79.249 C 64.435 79.374,64.333 79.584,64.333 79.716 C 64.333 79.847,64.183 80.146,64.000 80.379 C 63.817 80.612,63.667 80.850,63.667 80.908 C 63.667 81.578,60.225 84.652,59.453 84.672 C 59.341 84.675,59.104 84.787,58.926 84.922 C 58.749 85.057,58.486 85.169,58.343 85.172 C 58.200 85.175,57.783 85.323,57.417 85.500 C 57.050 85.677,56.480 85.825,56.151 85.828 C 55.821 85.831,55.299 85.959,54.991 86.113 C 54.175 86.520,45.142 86.515,44.000 86.106 C 43.587 85.959,42.941 85.837,42.563 85.836 C 42.186 85.834,41.407 85.683,40.833 85.500 C 40.259 85.317,39.589 85.167,39.343 85.167 C 39.098 85.167,38.751 85.057,38.574 84.922 C 38.396 84.787,38.025 84.672,37.750 84.666 C 37.475 84.660,36.950 84.510,36.583 84.333 C 36.217 84.156,35.772 84.009,35.594 84.006 C 34.582 83.988,34.500 83.631,34.500 79.241 C 34.500 74.659,34.493 74.684,35.654 74.997 C 36.028 75.097,36.333 75.243,36.333 75.321 C 36.333 75.399,36.588 75.511,36.900 75.569 C 37.212 75.628,37.558 75.786,37.670 75.921 C 37.782 76.056,38.047 76.167,38.259 76.167 C 38.470 76.167,38.746 76.270,38.873 76.396 C 38.999 76.523,39.360 76.682,39.676 76.751 C 39.992 76.820,40.398 76.979,40.579 77.105 C 40.760 77.230,41.097 77.334,41.329 77.334 C 41.560 77.335,41.961 77.445,42.219 77.580 C 42.477 77.715,43.077 77.870,43.552 77.926 C 44.028 77.982,44.699 78.134,45.045 78.264 C 45.800 78.548,51.581 78.608,51.750 78.333 C 51.807 78.242,52.184 78.083,52.588 77.981 C 52.992 77.880,53.410 77.692,53.515 77.565 C 53.621 77.438,53.792 77.330,53.895 77.327 C 54.820 77.295,55.664 73.776,54.958 72.891 C 54.320 72.090,53.430 71.333,53.126 71.333 C 53.004 71.333,52.610 71.183,52.250 71.000 C 51.890 70.817,51.422 70.667,51.209 70.667 C 50.997 70.667,50.568 70.560,50.257 70.430 C 49.945 70.300,49.254 70.141,48.720 70.076 C 48.187 70.011,47.547 69.855,47.300 69.729 C 47.052 69.603,46.565 69.500,46.217 69.499 C 45.868 69.498,45.388 69.396,45.150 69.272 C 44.911 69.147,44.351 68.991,43.905 68.924 C 43.460 68.857,42.945 68.697,42.761 68.568 C 42.576 68.439,42.292 68.333,42.129 68.333 C 41.966 68.333,41.552 68.183,41.210 68.000 C 40.868 67.817,40.503 67.667,40.398 67.667 C 40.293 67.667,40.114 67.554,40.000 67.417 C 39.886 67.279,39.670 67.165,39.521 67.162 C 39.192 67.157,37.037 65.445,36.482 64.749 C 35.694 63.759,34.833 62.118,34.833 61.607 C 34.833 61.405,34.702 61.055,34.542 60.829 C 34.114 60.224,34.119 55.017,34.547 54.217 C 34.705 53.923,34.833 53.464,34.833 53.195 C 34.833 52.927,34.946 52.614,35.083 52.500 C 35.221 52.386,35.333 52.162,35.333 52.002 C 35.333 51.842,35.483 51.521,35.667 51.288 C 35.850 51.055,36.000 50.780,36.000 50.677 C 36.000 50.406,38.491 47.932,39.083 47.614 C 39.358 47.466,39.822 47.231,40.114 47.092 C 40.405 46.952,40.691 46.762,40.748 46.669 C 40.806 46.576,40.999 46.500,41.177 46.500 C 41.355 46.500,41.781 46.350,42.123 46.167 C 42.465 45.983,42.981 45.833,43.270 45.833 C 43.559 45.833,44.047 45.724,44.356 45.590 C 45.153 45.244,53.888 45.224,55.095 45.566 M181.500 65.583 L 181.500 85.000 186.250 85.000 L 191.000 85.000 191.000 77.012 C 191.000 69.972,191.031 68.993,191.262 68.762 C 191.492 68.531,192.449 68.500,199.262 68.500 L 207.000 68.500 207.000 64.917 L 207.000 61.333 199.161 61.333 C 191.853 61.333,191.315 61.314,191.203 61.042 C 191.047 60.661,191.047 54.172,191.203 53.792 C 191.315 53.519,191.877 53.500,199.661 53.500 L 208.000 53.500 208.000 49.833 L 208.000 46.167 194.750 46.167 L 181.500 46.167 181.500 65.583 M140.736 47.768 C 140.966 47.856,141.000 48.365,141.000 51.750 C 141.000 55.135,141.034 55.644,141.264 55.732 C 141.409 55.788,143.510 55.833,145.934 55.833 L 150.342 55.833 150.504 56.261 C 150.842 57.150,150.708 62.799,150.344 62.994 C 150.145 63.101,148.297 63.167,145.497 63.167 L 140.971 63.167 141.044 70.042 C 141.141 79.151,140.691 78.376,145.950 78.500 C 150.318 78.603,149.903 78.226,149.971 82.150 C 150.043 86.276,150.768 85.833,143.933 85.833 C 137.795 85.833,135.984 85.542,134.417 84.303 C 133.396 83.497,133.105 83.206,132.671 82.564 C 132.394 82.153,132.167 81.677,132.167 81.506 C 132.167 81.334,132.084 81.167,131.984 81.134 C 131.883 81.100,131.727 80.662,131.636 80.161 C 131.545 79.660,131.383 79.145,131.277 79.016 C 131.138 78.848,131.069 76.590,131.031 70.975 L 130.979 63.167 128.979 63.167 C 126.135 63.167,126.333 63.423,126.333 59.755 C 126.333 58.068,126.406 56.496,126.496 56.261 L 126.658 55.833 128.829 55.833 L 131.000 55.833 131.000 51.861 C 131.000 49.676,131.050 47.839,131.111 47.778 C 131.250 47.639,140.376 47.630,140.736 47.768 M253.333 55.693 C 253.012 55.781,252.375 55.922,251.917 56.006 C 251.173 56.143,250.411 56.432,249.667 56.859 C 249.529 56.938,249.235 57.095,249.014 57.207 C 248.535 57.451,247.994 57.896,246.480 59.290 C 244.968 60.682,244.833 60.616,244.833 58.496 C 244.833 57.596,244.788 56.742,244.732 56.597 C 244.592 56.231,236.489 56.195,236.186 56.560 C 236.049 56.725,236.010 60.664,236.041 71.102 L 236.083 85.417 240.417 85.417 L 244.750 85.417 244.836 77.000 C 244.897 70.967,244.978 68.442,245.123 68.083 C 245.234 67.808,245.368 67.302,245.420 66.958 C 245.472 66.615,245.587 66.333,245.674 66.333 C 245.762 66.333,245.833 66.195,245.833 66.025 C 245.833 65.617,247.424 63.526,247.887 63.325 C 248.087 63.238,248.362 63.096,248.500 63.008 C 249.816 62.171,251.906 61.977,253.095 62.583 C 255.917 64.020,255.961 64.217,256.107 76.211 L 256.219 85.505 260.568 85.461 L 264.917 85.417 264.917 76.000 C 264.917 66.352,264.769 63.386,264.237 62.366 C 264.108 62.119,263.997 61.767,263.990 61.583 C 263.983 61.400,263.758 60.875,263.490 60.417 C 263.221 59.958,262.950 59.474,262.886 59.340 C 262.377 58.266,259.564 56.306,258.194 56.072 C 257.858 56.014,257.213 55.862,256.761 55.734 C 255.840 55.472,254.215 55.453,253.333 55.693 M323.750 55.742 C 323.200 55.860,322.316 56.010,321.786 56.074 C 321.256 56.139,320.619 56.298,320.370 56.428 C 320.121 56.558,319.778 56.665,319.609 56.666 C 319.440 56.666,319.102 56.771,318.859 56.898 C 318.616 57.025,318.229 57.213,318.000 57.316 C 317.771 57.419,317.358 57.652,317.083 57.833 C 316.808 58.015,316.397 58.258,316.169 58.373 C 315.723 58.599,315.626 58.680,314.387 59.856 C 313.548 60.651,312.285 62.365,312.095 62.964 C 312.036 63.151,311.877 63.394,311.744 63.505 C 311.610 63.617,311.500 63.869,311.500 64.067 C 311.500 64.264,311.398 64.574,311.273 64.755 C 311.148 64.935,310.996 65.421,310.935 65.833 C 310.874 66.246,310.717 66.883,310.586 67.250 C 310.258 68.170,310.237 73.446,310.559 74.216 C 310.682 74.513,310.836 75.129,310.899 75.586 C 310.963 76.043,311.134 76.679,311.280 77.000 C 311.913 78.394,312.257 79.089,312.350 79.167 C 312.405 79.212,312.546 79.433,312.664 79.656 C 313.053 80.394,315.494 82.921,316.082 83.195 C 316.266 83.280,316.717 83.533,317.083 83.755 C 317.450 83.978,317.862 84.204,318.000 84.257 C 318.137 84.311,318.475 84.462,318.750 84.593 C 319.025 84.725,319.512 84.879,319.833 84.936 C 320.154 84.994,320.567 85.132,320.750 85.244 C 320.933 85.356,321.655 85.495,322.354 85.553 C 323.053 85.611,323.826 85.736,324.073 85.829 C 324.655 86.051,329.343 86.051,329.925 85.830 C 330.171 85.737,331.057 85.614,331.894 85.557 C 332.732 85.500,333.604 85.362,333.833 85.249 C 334.063 85.137,334.639 84.996,335.114 84.935 C 335.590 84.874,336.190 84.715,336.448 84.580 C 336.706 84.445,337.145 84.335,337.425 84.334 C 337.705 84.334,338.009 84.258,338.101 84.165 C 338.194 84.073,338.602 83.901,339.010 83.783 L 339.750 83.569 339.795 80.422 C 339.846 76.935,339.805 76.784,338.951 77.312 C 338.635 77.507,338.264 77.667,338.126 77.667 C 337.987 77.667,337.781 77.779,337.667 77.917 C 337.553 78.054,337.337 78.169,337.188 78.172 C 337.039 78.175,336.617 78.323,336.250 78.500 C 335.883 78.677,335.449 78.825,335.286 78.828 C 335.122 78.831,334.822 78.937,334.619 79.063 C 334.416 79.190,333.883 79.340,333.433 79.397 C 332.984 79.454,332.519 79.582,332.399 79.682 C 331.749 80.221,325.280 80.192,324.051 79.645 C 323.666 79.473,323.269 79.333,323.169 79.333 C 322.717 79.333,320.778 77.607,320.494 76.952 C 320.406 76.749,320.267 76.471,320.184 76.333 C 319.939 75.925,319.525 74.787,319.426 74.250 C 319.232 73.194,318.600 73.255,330.437 73.204 L 341.219 73.157 341.109 70.001 C 341.019 67.418,340.939 66.691,340.666 65.999 C 340.483 65.535,340.333 64.979,340.333 64.764 C 340.333 64.550,340.221 64.281,340.083 64.167 C 339.946 64.053,339.833 63.790,339.833 63.583 C 339.833 63.377,339.724 63.117,339.590 63.005 C 339.456 62.894,339.297 62.641,339.236 62.443 C 339.100 62.001,337.431 59.899,336.776 59.345 C 336.512 59.122,336.211 58.858,336.107 58.759 C 335.461 58.147,332.778 56.667,332.313 56.667 C 332.181 56.667,331.924 56.562,331.741 56.433 C 331.558 56.305,330.960 56.146,330.412 56.081 C 329.865 56.016,329.007 55.858,328.507 55.731 C 327.390 55.448,325.094 55.453,323.750 55.742 M366.167 55.694 C 365.846 55.781,365.180 55.926,364.687 56.016 C 364.194 56.105,363.633 56.288,363.441 56.422 C 363.249 56.557,362.997 56.667,362.881 56.667 C 362.679 56.667,361.337 57.552,360.482 58.250 C 360.257 58.433,359.850 58.883,359.578 59.250 C 359.082 59.919,358.951 60.084,358.514 60.600 C 358.041 61.158,357.833 60.455,357.833 58.299 L 357.833 56.328 353.375 56.372 L 348.917 56.417 348.874 70.958 L 348.832 85.500 353.326 85.500 L 357.821 85.500 357.869 77.375 C 357.921 68.571,357.894 68.854,358.890 66.667 C 359.284 65.801,359.350 65.710,360.262 64.777 C 361.163 63.856,361.284 63.779,362.964 63.066 C 363.734 62.739,367.958 62.739,368.425 63.066 C 368.607 63.194,369.055 63.325,369.420 63.358 L 370.083 63.417 370.128 59.723 C 370.182 55.262,370.288 55.492,368.196 55.517 C 367.401 55.526,366.488 55.606,366.167 55.694 M121.178 55.839 C 121.602 56.066,121.694 85.298,121.271 85.649 C 121.110 85.783,119.707 85.826,116.480 85.794 L 111.917 85.750 111.874 70.844 C 111.840 59.029,111.875 55.910,112.041 55.805 C 112.359 55.603,120.796 55.635,121.178 55.839 M217.707 70.708 L 217.750 85.250 221.750 85.296 C 224.610 85.329,225.857 85.285,226.125 85.143 L 226.500 84.944 226.500 70.555 L 226.500 56.167 222.082 56.167 L 217.665 56.167 217.707 70.708 M328.822 61.906 C 328.980 62.049,329.171 62.167,329.246 62.167 C 329.509 62.167,330.833 63.358,330.833 63.594 C 330.833 63.726,330.902 63.833,330.985 63.833 C 331.628 63.833,332.304 67.199,331.744 67.609 C 331.411 67.852,320.851 67.920,320.000 67.685 C 319.480 67.541,319.381 67.004,319.737 66.254 C 319.882 65.949,320.000 65.597,320.000 65.471 C 320.000 65.144,321.059 63.580,321.614 63.088 C 322.394 62.396,322.443 62.363,323.108 62.058 C 324.438 61.449,328.206 61.349,328.822 61.906 M290.285 62.075 C 291.849 62.860,293.480 64.944,293.495 66.175 C 293.498 66.409,293.594 66.694,293.708 66.808 C 294.055 67.154,294.101 73.346,293.763 74.025 C 293.618 74.314,293.500 74.694,293.500 74.869 C 293.500 75.287,292.687 77.000,292.488 77.000 C 292.403 77.000,292.333 77.087,292.333 77.194 C 292.333 77.300,292.052 77.641,291.708 77.951 C 289.470 79.969,285.485 79.918,283.613 77.848 C 283.414 77.627,283.119 77.329,282.958 77.186 C 282.798 77.043,282.667 76.839,282.667 76.733 C 282.667 76.627,282.556 76.449,282.421 76.337 C 282.286 76.225,282.125 75.859,282.063 75.525 C 282.001 75.190,281.833 74.738,281.691 74.520 C 281.478 74.192,281.433 73.491,281.433 70.500 C 281.433 67.509,281.478 66.808,281.691 66.480 C 281.833 66.262,282.001 65.810,282.063 65.475 C 282.125 65.141,282.286 64.775,282.421 64.663 C 282.556 64.551,282.668 64.375,282.669 64.271 C 282.673 63.970,284.355 62.423,285.083 62.051 C 286.151 61.505,289.179 61.519,290.285 62.075 " stroke="none" fill="#040404" fill-rule="evenodd"></path><path id="path2" d="M175.750 24.444 C 175.567 24.484,175.267 24.582,175.083 24.662 C 174.900 24.742,174.466 24.846,174.119 24.894 C 173.028 25.044,170.667 27.196,170.667 28.040 C 170.667 28.208,170.553 28.519,170.414 28.731 C 170.033 29.312,170.037 111.860,170.418 112.442 C 170.555 112.651,170.667 112.944,170.667 113.093 C 170.667 113.814,173.137 116.160,173.909 116.172 C 174.096 116.175,174.396 116.287,174.574 116.422 C 175.052 116.784,371.414 116.794,372.225 116.432 C 372.514 116.303,372.953 116.153,373.202 116.097 C 373.943 115.933,375.938 113.840,376.175 112.979 C 376.285 112.578,376.478 112.014,376.604 111.725 C 376.976 110.874,376.943 30.578,376.571 29.311 C 375.873 26.935,373.906 24.833,372.379 24.833 C 372.115 24.833,371.806 24.740,371.692 24.625 C 371.490 24.424,176.665 24.244,175.750 24.444 M371.885 25.019 C 372.544 25.120,373.121 25.260,373.167 25.329 C 373.212 25.397,373.477 25.569,373.753 25.711 C 374.905 26.301,375.713 27.498,376.196 29.333 C 376.615 30.923,376.658 109.998,376.241 111.695 C 375.834 113.349,374.544 115.333,373.876 115.333 C 373.783 115.333,373.616 115.444,373.504 115.579 C 373.392 115.714,373.026 115.876,372.692 115.938 C 372.357 116.001,371.842 116.153,371.547 116.276 C 370.747 116.610,176.087 116.610,175.286 116.276 C 174.991 116.153,174.460 115.998,174.106 115.932 C 173.383 115.796,173.279 115.726,172.191 114.648 C 171.180 113.646,171.123 113.564,170.744 112.583 C 170.314 111.469,170.140 29.794,170.566 29.120 C 170.695 28.917,170.849 28.517,170.908 28.233 C 171.174 26.955,173.299 25.241,174.917 24.999 C 176.345 24.786,370.502 24.805,371.885 25.019 M73.533 44.367 C 73.140 44.760,73.256 84.868,73.652 85.357 L 73.971 85.750 78.499 85.750 C 82.789 85.750,83.039 85.733,83.264 85.426 C 83.461 85.156,83.493 83.770,83.460 76.926 L 83.420 68.750 83.375 76.822 C 83.335 84.040,83.301 84.926,83.056 85.197 C 82.713 85.575,74.237 85.670,73.867 85.300 C 73.495 84.929,73.586 44.379,73.958 44.282 C 74.182 44.223,74.190 44.201,73.992 44.186 C 73.850 44.175,73.643 44.257,73.533 44.367 M83.042 44.335 C 83.312 44.504,83.333 45.049,83.333 51.915 C 83.333 55.984,83.392 59.350,83.465 59.395 C 83.537 59.439,83.968 59.122,84.423 58.690 C 86.368 56.843,88.587 55.635,90.583 55.338 L 91.417 55.214 90.667 55.191 C 90.254 55.179,89.702 55.281,89.439 55.418 C 89.177 55.555,88.877 55.669,88.773 55.672 C 88.145 55.689,85.654 57.266,84.450 58.408 C 84.010 58.825,83.617 59.167,83.577 59.167 C 83.536 59.167,83.484 55.811,83.460 51.711 C 83.418 44.399,83.410 44.254,83.083 44.204 C 82.779 44.159,82.775 44.170,83.042 44.335 M121.250 48.057 L 121.250 51.917 116.625 51.961 C 113.152 51.994,112.000 51.956,112.000 51.808 C 112.000 51.700,111.952 51.659,111.893 51.718 C 111.834 51.777,111.881 51.940,111.997 52.079 C 112.317 52.466,120.851 52.459,121.238 52.071 C 121.519 51.790,121.648 44.445,121.375 44.276 C 121.306 44.233,121.250 45.935,121.250 48.057 M217.533 44.367 C 217.250 44.650,217.250 51.517,217.533 51.800 C 217.818 52.085,226.349 52.085,226.633 51.800 C 226.776 51.657,226.833 50.588,226.833 48.046 L 226.833 44.492 226.406 44.329 C 225.759 44.083,217.783 44.117,217.533 44.367 M294.042 44.277 C 293.879 44.343,293.833 46.012,293.833 51.837 C 293.833 55.949,293.773 59.351,293.699 59.397 C 293.625 59.442,293.344 59.211,293.074 58.882 C 290.133 55.297,283.609 53.686,279.903 55.630 C 279.727 55.722,279.396 55.880,279.167 55.981 C 272.791 58.787,269.582 70.701,273.168 78.250 C 273.255 78.433,273.406 78.771,273.504 79.000 C 273.876 79.874,275.114 81.689,275.955 82.591 C 276.856 83.559,278.260 84.620,279.167 85.019 C 279.396 85.120,279.727 85.278,279.903 85.370 C 283.319 87.162,289.094 86.012,292.279 82.908 C 293.852 81.374,293.833 81.366,293.833 83.564 C 293.833 84.536,293.907 85.173,294.033 85.300 C 294.421 85.688,302.949 85.574,303.161 85.178 C 303.426 84.682,303.399 44.632,303.133 44.367 C 302.933 44.167,294.521 44.084,294.042 44.277 M226.500 48.083 L 226.500 51.667 222.083 51.667 L 217.667 51.667 217.667 48.083 L 217.667 44.500 222.083 44.500 L 226.500 44.500 226.500 48.083 M303.000 64.753 L 303.000 85.005 298.542 84.961 L 294.083 84.917 294.042 83.417 C 293.992 81.623,293.902 81.167,293.599 81.167 C 293.474 81.167,293.261 81.335,293.126 81.542 C 292.738 82.133,291.390 83.448,290.837 83.774 C 290.560 83.938,290.333 84.123,290.333 84.185 C 290.333 84.246,290.146 84.344,289.917 84.402 C 289.688 84.459,289.500 84.574,289.500 84.657 C 289.500 84.739,289.256 84.859,288.958 84.923 C 288.660 84.986,288.229 85.136,288.000 85.256 C 286.672 85.948,281.913 85.892,280.250 85.165 C 279.883 85.005,279.471 84.824,279.333 84.764 C 278.002 84.178,276.917 83.266,275.648 81.667 C 274.242 79.895,274.167 79.788,274.167 79.570 C 274.167 79.462,274.054 79.281,273.917 79.167 C 273.779 79.053,273.667 78.836,273.667 78.685 C 273.667 78.535,273.517 78.132,273.333 77.790 C 273.150 77.448,273.000 77.010,273.000 76.818 C 273.000 76.626,272.893 76.269,272.761 76.026 C 271.930 74.485,271.939 66.625,272.773 64.967 C 272.898 64.719,273.000 64.363,273.000 64.174 C 273.000 63.986,273.150 63.552,273.333 63.210 C 273.517 62.868,273.667 62.465,273.667 62.315 C 273.667 62.164,273.779 61.947,273.917 61.833 C 274.054 61.719,274.167 61.538,274.167 61.430 C 274.167 61.212,274.242 61.105,275.648 59.333 C 276.917 57.734,278.002 56.822,279.333 56.236 C 279.471 56.176,279.883 55.995,280.250 55.833 C 281.417 55.321,284.041 55.087,285.936 55.327 C 287.999 55.589,288.688 55.855,290.752 57.189 C 291.497 57.670,292.480 58.610,293.133 59.467 C 293.964 60.557,294.000 60.249,294.000 51.968 L 294.000 44.500 298.500 44.500 L 303.000 44.500 303.000 64.753 M44.417 45.592 L 43.917 45.837 44.500 45.729 C 44.821 45.669,45.458 45.567,45.917 45.501 L 46.750 45.380 45.833 45.364 C 45.329 45.356,44.692 45.458,44.417 45.592 M53.000 45.506 C 53.596 45.576,54.458 45.676,54.917 45.730 L 55.750 45.827 55.083 45.593 C 54.717 45.464,53.854 45.364,53.167 45.370 L 51.917 45.381 53.000 45.506 M42.204 46.110 C 41.462 46.476,41.673 46.620,42.457 46.282 C 42.801 46.134,43.271 45.982,43.500 45.946 C 43.806 45.896,43.762 45.874,43.333 45.860 C 43.012 45.849,42.504 45.962,42.204 46.110 M56.917 45.994 C 57.467 46.074,58.128 46.221,58.386 46.320 C 58.644 46.419,59.019 46.497,59.219 46.493 C 60.022 46.477,58.202 45.988,57.083 45.920 L 55.917 45.848 56.917 45.994 M181.279 46.110 C 181.086 46.303,181.145 84.816,181.339 85.178 C 181.504 85.485,181.736 85.500,186.250 85.500 C 190.764 85.500,190.996 85.485,191.161 85.178 C 191.273 84.968,191.333 82.048,191.333 76.844 L 191.333 68.833 199.094 68.833 C 204.125 68.833,206.969 68.773,207.178 68.661 C 207.481 68.498,207.500 68.277,207.500 64.907 L 207.500 61.325 207.072 61.163 C 206.817 61.065,203.559 61.000,198.986 61.000 L 191.327 61.000 191.372 57.375 L 191.417 53.750 199.833 53.667 L 208.250 53.583 208.250 49.833 L 208.250 46.083 194.820 46.041 C 187.434 46.017,181.340 46.048,181.279 46.110 M208.000 49.833 L 208.000 53.500 199.661 53.500 C 191.877 53.500,191.315 53.519,191.203 53.792 C 191.047 54.172,191.047 60.661,191.203 61.042 C 191.315 61.314,191.853 61.333,199.161 61.333 L 207.000 61.333 207.000 64.917 L 207.000 68.500 199.262 68.500 C 192.449 68.500,191.492 68.531,191.262 68.762 C 191.031 68.993,191.000 69.972,191.000 77.012 L 191.000 85.000 186.250 85.000 L 181.500 85.000 181.500 65.583 L 181.500 46.167 194.750 46.167 L 208.000 46.167 208.000 49.833 M40.667 46.750 C 40.553 46.887,40.364 47.000,40.248 47.000 C 40.132 47.000,39.860 47.152,39.643 47.338 L 39.250 47.675 39.917 47.346 C 41.549 46.539,41.607 46.502,41.229 46.501 C 41.034 46.500,40.781 46.612,40.667 46.750 M60.250 46.657 C 61.527 47.042,61.590 47.052,61.395 46.843 C 61.292 46.731,60.879 46.610,60.479 46.573 C 59.838 46.515,59.811 46.525,60.250 46.657 M62.079 47.146 C 62.914 47.324,62.995 47.718,62.995 51.583 C 62.995 55.386,62.985 55.439,62.249 55.536 L 61.750 55.602 62.221 55.739 C 63.053 55.981,63.083 55.830,63.083 51.478 C 63.083 47.068,63.060 46.971,62.010 47.020 C 61.609 47.038,61.613 47.046,62.079 47.146 M37.405 49.071 C 36.632 49.844,36.000 50.563,36.000 50.670 C 36.000 50.777,35.850 51.055,35.667 51.288 C 35.483 51.521,35.333 51.842,35.333 52.002 C 35.333 52.162,35.221 52.386,35.083 52.500 C 34.946 52.614,34.839 52.905,34.846 53.145 C 34.854 53.386,34.898 53.471,34.944 53.333 C 35.518 51.626,37.034 49.449,38.375 48.405 C 38.810 48.066,39.167 47.761,39.167 47.728 C 39.167 47.445,38.595 47.881,37.405 49.071 M131.111 47.778 C 131.050 47.839,131.000 49.676,131.000 51.861 L 131.000 55.833 128.829 55.833 L 126.658 55.833 126.496 56.261 C 126.406 56.496,126.333 58.068,126.333 59.755 C 126.333 63.423,126.135 63.167,128.979 63.167 L 130.979 63.167 131.031 70.992 C 131.071 76.972,131.132 78.866,131.292 79.025 C 131.406 79.140,131.506 79.387,131.513 79.575 C 131.520 79.763,131.563 79.827,131.607 79.718 C 131.651 79.609,131.593 79.234,131.478 78.885 C 131.327 78.430,131.241 76.103,131.175 70.667 L 131.083 63.083 129.167 63.042 C 126.193 62.979,126.500 63.364,126.500 59.695 C 126.500 55.755,126.323 56.019,129.000 55.962 L 131.083 55.917 131.128 52.013 C 131.157 49.476,131.237 48.032,131.357 47.888 C 131.541 47.666,131.322 47.567,131.111 47.778 M140.542 47.847 C 140.806 48.001,140.833 48.378,140.833 51.907 C 140.833 55.301,140.867 55.811,141.097 55.899 C 141.242 55.954,143.339 56.000,145.758 56.000 C 151.074 56.000,150.531 55.559,150.465 59.820 C 150.439 61.552,150.473 62.934,150.542 62.891 C 150.727 62.776,150.693 56.758,150.504 56.261 L 150.342 55.833 145.934 55.833 C 143.510 55.833,141.409 55.788,141.264 55.732 C 141.034 55.644,141.000 55.135,141.000 51.750 C 141.000 48.365,140.966 47.856,140.736 47.768 C 140.330 47.612,140.217 47.657,140.542 47.847 M49.549 53.124 C 50.264 53.155,51.389 53.155,52.049 53.124 C 52.710 53.092,52.125 53.066,50.750 53.067 C 49.375 53.067,48.835 53.093,49.549 53.124 M46.500 53.484 C 44.993 54.031,43.829 55.110,43.836 55.955 C 43.837 56.117,44.005 55.923,44.210 55.523 C 44.655 54.654,45.532 53.922,46.333 53.751 C 46.969 53.616,47.905 53.170,47.500 53.196 C 47.362 53.204,46.913 53.334,46.500 53.484 M54.360 53.415 C 54.696 53.538,55.400 53.693,55.926 53.758 C 56.451 53.824,57.076 53.980,57.315 54.104 C 57.554 54.229,57.938 54.328,58.167 54.323 C 58.652 54.314,57.158 53.829,55.417 53.431 C 54.021 53.112,53.515 53.104,54.360 53.415 M34.527 54.258 C 34.420 54.491,34.342 54.960,34.352 55.300 L 34.372 55.917 34.496 55.333 C 34.564 55.012,34.676 54.544,34.745 54.292 C 34.901 53.716,34.782 53.698,34.527 54.258 M59.250 54.660 C 59.617 54.842,60.067 54.990,60.250 54.988 C 60.442 54.987,60.300 54.878,59.917 54.732 C 58.872 54.334,58.517 54.296,59.250 54.660 M60.833 55.250 C 60.947 55.387,61.200 55.500,61.395 55.499 C 61.703 55.498,61.686 55.465,61.273 55.249 C 60.671 54.935,60.572 54.935,60.833 55.250 M92.375 55.121 C 92.719 55.157,93.281 55.157,93.625 55.121 C 93.969 55.085,93.688 55.056,93.000 55.056 C 92.313 55.056,92.031 55.085,92.375 55.121 M95.428 55.332 C 95.893 55.401,96.432 55.541,96.626 55.645 C 96.820 55.749,97.077 55.831,97.197 55.828 C 97.318 55.825,97.117 55.677,96.750 55.500 C 96.369 55.316,95.762 55.184,95.333 55.193 L 94.583 55.208 95.428 55.332 M252.083 55.606 C 249.686 56.333,248.440 57.046,246.368 58.877 L 245.250 59.865 245.167 58.107 C 245.058 55.808,245.483 55.987,240.239 56.039 L 235.750 56.083 235.750 70.833 L 235.750 85.583 240.230 85.628 C 243.395 85.659,244.776 85.617,244.938 85.482 C 245.126 85.327,245.167 83.915,245.170 77.605 C 245.173 68.659,245.304 67.329,246.344 65.667 C 246.430 65.529,246.569 65.261,246.652 65.071 C 247.383 63.396,250.610 62.124,252.523 62.756 C 255.537 63.752,255.667 64.330,255.667 76.800 C 255.667 83.794,255.707 85.326,255.895 85.482 C 256.057 85.617,257.460 85.659,260.687 85.628 L 265.250 85.583 265.250 75.500 C 265.250 63.643,265.234 63.488,263.707 60.167 C 262.041 56.545,256.352 54.313,252.083 55.606 M322.583 55.578 C 322.125 55.711,321.582 55.822,321.376 55.826 C 318.954 55.874,314.355 58.879,312.484 61.637 C 307.750 68.615,310.199 81.131,316.861 83.998 C 317.075 84.090,317.362 84.237,317.500 84.325 C 321.686 86.990,331.140 86.881,339.193 84.075 C 340.171 83.733,340.162 83.774,340.164 80.062 C 340.167 76.426,340.162 76.415,338.715 77.079 C 338.184 77.322,337.525 77.625,337.250 77.751 C 336.798 77.958,335.996 78.254,334.333 78.828 C 334.012 78.939,333.225 79.142,332.583 79.280 C 331.942 79.417,331.117 79.595,330.750 79.674 C 327.491 80.381,323.185 79.492,321.539 77.772 C 320.578 76.769,319.443 74.163,319.751 73.665 C 319.817 73.559,323.621 73.500,330.437 73.500 C 337.415 73.500,341.132 73.441,341.344 73.327 C 341.629 73.175,341.666 72.967,341.665 71.536 C 341.653 63.237,337.897 57.822,330.750 55.803 C 329.178 55.358,323.854 55.212,322.583 55.578 M364.667 55.676 C 362.109 56.424,359.053 58.614,358.575 60.042 C 358.339 60.748,358.198 60.193,358.143 58.342 C 358.066 55.774,358.519 55.987,353.239 56.039 L 348.750 56.083 348.750 70.833 L 348.750 85.583 353.322 85.628 C 356.868 85.662,357.924 85.625,358.028 85.461 C 358.101 85.345,358.163 81.831,358.164 77.652 C 358.166 70.718,358.195 69.945,358.485 68.818 C 359.484 64.943,361.863 63.000,365.607 63.000 C 366.822 63.000,369.368 63.531,369.792 63.873 C 369.934 63.988,370.079 63.975,370.250 63.833 C 370.546 63.588,370.623 56.511,370.337 55.761 L 370.175 55.333 367.962 55.346 C 366.310 55.356,365.476 55.439,364.667 55.676 M256.761 55.734 C 257.213 55.862,257.858 56.014,258.194 56.072 C 259.564 56.306,262.377 58.266,262.886 59.340 C 262.950 59.474,263.221 59.958,263.490 60.417 C 263.758 60.875,263.983 61.400,263.990 61.583 C 263.997 61.767,264.108 62.119,264.237 62.366 C 264.769 63.386,264.917 66.352,264.917 76.000 L 264.917 85.417 260.568 85.461 L 256.219 85.505 256.107 76.211 C 255.961 64.217,255.917 64.020,253.095 62.583 C 251.906 61.977,249.816 62.171,248.500 63.008 C 248.362 63.096,248.087 63.238,247.887 63.325 C 247.424 63.526,245.833 65.617,245.833 66.025 C 245.833 66.195,245.762 66.333,245.674 66.333 C 245.587 66.333,245.472 66.615,245.420 66.958 C 245.368 67.302,245.234 67.808,245.123 68.083 C 244.978 68.442,244.897 70.967,244.836 77.000 L 244.750 85.417 240.417 85.417 L 236.083 85.417 236.041 71.102 C 236.010 60.664,236.049 56.725,236.186 56.560 C 236.489 56.195,244.592 56.231,244.732 56.597 C 244.788 56.742,244.833 57.596,244.833 58.496 C 244.833 60.616,244.968 60.682,246.480 59.290 C 247.994 57.896,248.535 57.451,249.014 57.207 C 249.235 57.095,249.529 56.938,249.667 56.859 C 250.411 56.432,251.173 56.143,251.917 56.006 C 252.375 55.922,253.012 55.781,253.333 55.693 C 254.215 55.453,255.840 55.472,256.761 55.734 M328.507 55.731 C 329.007 55.858,329.865 56.016,330.412 56.081 C 330.960 56.146,331.558 56.305,331.741 56.433 C 331.924 56.562,332.181 56.667,332.313 56.667 C 332.778 56.667,335.461 58.147,336.107 58.759 C 336.211 58.858,336.512 59.122,336.776 59.345 C 337.431 59.899,339.100 62.001,339.236 62.443 C 339.297 62.641,339.456 62.894,339.590 63.005 C 339.724 63.117,339.833 63.377,339.833 63.583 C 339.833 63.790,339.946 64.053,340.083 64.167 C 340.221 64.281,340.333 64.550,340.333 64.764 C 340.333 64.979,340.483 65.535,340.666 65.999 C 340.939 66.691,341.019 67.418,341.109 70.001 L 341.219 73.157 330.437 73.204 C 318.600 73.255,319.232 73.194,319.426 74.250 C 319.525 74.787,319.939 75.925,320.184 76.333 C 320.267 76.471,320.406 76.749,320.494 76.952 C 320.778 77.607,322.717 79.333,323.169 79.333 C 323.269 79.333,323.666 79.473,324.051 79.645 C 325.280 80.192,331.749 80.221,332.399 79.682 C 332.519 79.582,332.984 79.454,333.433 79.397 C 333.883 79.340,334.416 79.190,334.619 79.063 C 334.822 78.937,335.122 78.831,335.286 78.828 C 335.449 78.825,335.883 78.677,336.250 78.500 C 336.617 78.323,337.039 78.175,337.188 78.172 C 337.337 78.169,337.553 78.054,337.667 77.917 C 337.781 77.779,337.987 77.667,338.126 77.667 C 338.264 77.667,338.635 77.507,338.951 77.312 C 339.805 76.784,339.846 76.935,339.795 80.422 L 339.750 83.569 339.010 83.783 C 338.602 83.901,338.194 84.073,338.101 84.165 C 338.009 84.258,337.705 84.334,337.425 84.334 C 337.145 84.335,336.706 84.445,336.448 84.580 C 336.190 84.715,335.590 84.874,335.114 84.935 C 334.639 84.996,334.063 85.137,333.833 85.249 C 333.604 85.362,332.732 85.500,331.894 85.557 C 331.057 85.614,330.171 85.737,329.925 85.830 C 329.343 86.051,324.655 86.051,324.073 85.829 C 323.826 85.736,323.053 85.611,322.354 85.553 C 321.655 85.495,320.933 85.356,320.750 85.244 C 320.567 85.132,320.154 84.994,319.833 84.936 C 319.512 84.879,319.025 84.725,318.750 84.593 C 318.475 84.462,318.137 84.311,318.000 84.257 C 317.862 84.204,317.450 83.978,317.083 83.755 C 316.717 83.533,316.266 83.280,316.082 83.195 C 315.494 82.921,313.053 80.394,312.664 79.656 C 312.546 79.433,312.405 79.212,312.350 79.167 C 312.257 79.089,311.913 78.394,311.280 77.000 C 311.134 76.679,310.963 76.043,310.899 75.586 C 310.836 75.129,310.682 74.513,310.559 74.216 C 310.237 73.446,310.258 68.170,310.586 67.250 C 310.717 66.883,310.874 66.246,310.935 65.833 C 310.996 65.421,311.148 64.935,311.273 64.755 C 311.398 64.574,311.500 64.264,311.500 64.067 C 311.500 63.869,311.610 63.617,311.744 63.505 C 311.877 63.394,312.036 63.151,312.095 62.964 C 312.285 62.365,313.548 60.651,314.387 59.856 C 315.626 58.680,315.723 58.599,316.169 58.373 C 316.397 58.258,316.808 58.015,317.083 57.833 C 317.358 57.652,317.771 57.419,318.000 57.316 C 318.229 57.213,318.616 57.025,318.859 56.898 C 319.102 56.771,319.440 56.666,319.609 56.666 C 319.778 56.665,320.121 56.558,320.370 56.428 C 320.619 56.298,321.256 56.139,321.786 56.074 C 322.316 56.010,323.200 55.860,323.750 55.742 C 325.094 55.453,327.390 55.448,328.507 55.731 M369.908 55.765 C 370.137 55.994,370.167 56.530,370.128 59.723 L 370.083 63.417 369.420 63.358 C 369.055 63.325,368.607 63.194,368.425 63.066 C 367.958 62.739,363.734 62.739,362.964 63.066 C 361.284 63.779,361.163 63.856,360.262 64.777 C 359.350 65.710,359.284 65.801,358.890 66.667 C 357.894 68.854,357.921 68.571,357.869 77.375 L 357.821 85.500 353.326 85.500 L 348.832 85.500 348.874 70.958 L 348.917 56.417 353.375 56.372 L 357.833 56.328 357.833 58.299 C 357.833 60.455,358.041 61.158,358.514 60.600 C 358.951 60.084,359.082 59.919,359.578 59.250 C 359.850 58.883,360.257 58.433,360.482 58.250 C 361.337 57.552,362.679 56.667,362.881 56.667 C 362.997 56.667,363.249 56.557,363.441 56.422 C 363.633 56.288,364.194 56.105,364.687 56.016 C 365.180 55.926,365.846 55.781,366.167 55.694 C 367.187 55.415,369.604 55.461,369.908 55.765 M112.042 55.777 C 111.927 55.823,111.833 55.939,111.833 56.034 C 111.833 56.149,111.909 56.145,112.055 56.023 C 112.202 55.902,113.777 55.823,116.680 55.792 L 121.083 55.744 116.667 55.719 C 114.237 55.705,112.156 55.731,112.042 55.777 M97.760 56.078 C 98.183 56.398,98.431 56.401,98.167 56.083 C 98.053 55.946,97.842 55.833,97.698 55.833 C 97.488 55.833,97.501 55.882,97.760 56.078 M121.250 70.724 L 121.250 85.583 116.750 85.628 C 112.612 85.669,112.232 85.649,112.027 85.378 C 111.817 85.102,111.807 85.104,111.862 85.417 C 111.933 85.816,120.806 86.035,121.271 85.649 C 121.524 85.439,121.627 56.098,121.375 55.942 C 121.306 55.900,121.250 62.552,121.250 70.724 M217.533 56.033 C 217.243 56.323,217.243 85.177,217.533 85.467 C 217.870 85.803,226.230 85.746,226.571 85.405 C 227.023 84.953,226.964 56.249,226.511 56.006 C 226.030 55.748,217.793 55.774,217.533 56.033 M34.228 57.583 C 34.228 58.500,34.256 58.854,34.290 58.369 C 34.324 57.885,34.323 57.135,34.289 56.703 C 34.255 56.270,34.227 56.667,34.228 57.583 M226.500 70.555 L 226.500 84.944 226.125 85.143 C 225.857 85.285,224.610 85.329,221.750 85.296 L 217.750 85.250 217.707 70.708 L 217.665 56.167 222.082 56.167 L 226.500 56.167 226.500 70.555 M98.936 56.694 C 99.200 56.892,99.773 57.396,100.208 57.813 C 100.644 58.230,101.000 58.515,101.000 58.446 C 101.000 58.184,98.907 56.333,98.610 56.333 C 98.525 56.333,98.671 56.496,98.936 56.694 M43.856 57.711 C 43.810 58.312,45.472 60.083,45.787 59.769 C 45.830 59.726,45.564 59.501,45.196 59.268 C 44.828 59.036,44.478 58.693,44.419 58.506 C 44.359 58.319,44.246 58.167,44.167 58.167 C 44.088 58.167,43.991 57.998,43.951 57.792 C 43.902 57.538,43.871 57.512,43.856 57.711 M101.187 58.951 C 101.575 59.411,102.550 61.513,102.680 62.167 C 102.784 62.695,102.797 62.706,102.814 62.283 C 102.832 61.851,102.378 60.590,101.992 60.000 C 101.902 59.862,101.749 59.550,101.653 59.305 C 101.556 59.060,101.355 58.813,101.206 58.756 C 100.963 58.663,100.961 58.682,101.187 58.951 M34.358 59.917 C 34.350 60.295,34.459 60.727,34.609 60.917 C 34.868 61.241,34.872 61.239,34.756 60.833 C 34.691 60.604,34.578 60.154,34.505 59.833 L 34.372 59.250 34.358 59.917 M46.583 60.104 C 46.950 60.245,47.438 60.392,47.667 60.431 C 47.896 60.470,47.971 60.457,47.833 60.402 C 47.696 60.348,47.347 60.198,47.058 60.068 C 46.769 59.939,46.394 59.837,46.225 59.841 C 46.055 59.845,46.217 59.963,46.583 60.104 M49.000 60.759 C 49.951 61.058,50.200 61.055,49.667 60.750 C 49.438 60.619,49.025 60.514,48.750 60.517 C 48.307 60.522,48.336 60.549,49.000 60.759 M50.917 61.111 C 51.192 61.150,51.771 61.296,52.204 61.436 C 52.638 61.576,53.163 61.658,53.371 61.618 C 53.669 61.561,53.641 61.541,53.242 61.523 C 52.962 61.510,52.652 61.419,52.553 61.319 C 52.453 61.220,51.932 61.116,51.394 61.089 C 50.857 61.063,50.642 61.072,50.917 61.111 M34.850 61.695 C 34.825 62.109,35.733 63.807,36.482 64.749 C 37.001 65.401,39.183 67.156,39.481 67.162 C 39.610 67.165,39.525 67.020,39.288 66.833 C 39.055 66.650,38.799 66.500,38.719 66.500 C 38.639 66.500,38.452 66.369,38.303 66.208 C 38.154 66.048,37.774 65.712,37.458 65.462 C 37.142 65.212,36.666 64.687,36.401 64.295 C 36.135 63.904,35.870 63.546,35.811 63.500 C 35.700 63.414,35.189 62.332,34.984 61.750 C 34.892 61.489,34.863 61.477,34.850 61.695 M324.333 61.644 C 323.717 61.771,322.596 62.244,322.275 62.512 C 321.455 63.197,321.069 63.619,320.572 64.374 C 320.257 64.851,320.000 65.345,320.000 65.471 C 320.000 65.597,319.882 65.949,319.737 66.254 C 319.381 67.004,319.480 67.541,320.000 67.685 C 320.851 67.920,331.411 67.852,331.744 67.609 C 332.304 67.199,331.628 63.833,330.985 63.833 C 330.902 63.833,330.833 63.726,330.833 63.594 C 330.833 63.358,329.509 62.167,329.246 62.167 C 329.171 62.167,328.980 62.049,328.822 61.906 C 328.497 61.613,325.373 61.431,324.333 61.644 M54.250 61.838 C 54.525 61.913,54.938 62.023,55.167 62.081 L 55.583 62.188 55.167 61.933 C 54.938 61.793,54.525 61.683,54.250 61.690 L 53.750 61.701 54.250 61.838 M285.083 62.051 C 284.355 62.423,282.673 63.970,282.669 64.271 C 282.668 64.375,282.556 64.551,282.421 64.663 C 282.286 64.775,282.125 65.141,282.063 65.475 C 282.001 65.810,281.833 66.262,281.691 66.480 C 281.478 66.808,281.433 67.509,281.433 70.500 C 281.433 73.491,281.478 74.192,281.691 74.520 C 281.833 74.738,282.001 75.190,282.063 75.525 C 282.125 75.859,282.286 76.225,282.421 76.337 C 282.556 76.449,282.667 76.627,282.667 76.733 C 282.667 76.839,282.798 77.043,282.958 77.186 C 283.119 77.329,283.414 77.627,283.613 77.848 C 285.485 79.918,289.470 79.969,291.708 77.951 C 292.052 77.641,292.333 77.300,292.333 77.194 C 292.333 77.087,292.403 77.000,292.488 77.000 C 292.687 77.000,293.500 75.287,293.500 74.869 C 293.500 74.694,293.618 74.314,293.763 74.025 C 294.101 73.346,294.055 67.154,293.708 66.808 C 293.594 66.694,293.498 66.409,293.495 66.175 C 293.485 65.371,292.811 64.220,291.674 63.067 C 290.278 61.651,286.888 61.128,285.083 62.051 M289.658 62.177 C 295.249 64.215,295.282 76.688,289.702 78.823 C 285.039 80.608,281.750 77.200,281.750 70.583 C 281.750 63.830,284.928 60.452,289.658 62.177 M328.601 62.192 C 330.314 62.949,331.574 64.800,331.705 66.750 L 331.750 67.417 325.927 67.461 C 319.463 67.509,319.782 67.566,320.058 66.417 C 320.933 62.778,325.179 60.678,328.601 62.192 M56.083 62.321 C 56.358 62.388,56.747 62.530,56.947 62.638 C 57.148 62.745,57.448 62.831,57.614 62.828 C 57.788 62.824,57.633 62.685,57.250 62.500 C 56.883 62.323,56.358 62.183,56.083 62.189 L 55.583 62.201 56.083 62.321 M87.667 62.750 C 87.100 63.074,87.613 63.079,88.356 62.757 C 88.866 62.535,88.879 62.513,88.500 62.512 C 88.271 62.512,87.896 62.619,87.667 62.750 M90.311 62.757 C 90.619 62.890,90.961 63.000,91.070 63.000 C 91.405 63.000,92.360 63.789,92.698 64.345 C 92.874 64.634,93.060 64.828,93.112 64.776 C 93.512 64.377,91.003 62.489,90.094 62.507 C 89.840 62.511,89.896 62.576,90.311 62.757 M59.083 63.425 C 59.725 63.739,60.288 63.994,60.333 63.992 C 60.551 63.983,59.595 63.333,59.357 63.328 C 59.206 63.325,58.938 63.213,58.760 63.078 C 58.582 62.943,58.319 62.838,58.176 62.843 C 58.034 62.849,58.442 63.110,59.083 63.425 M102.922 63.083 C 102.986 63.267,103.095 63.829,103.164 64.333 L 103.290 65.250 103.311 64.324 C 103.326 63.699,103.247 63.291,103.070 63.074 C 102.810 62.755,102.808 62.755,102.922 63.083 M85.737 63.898 C 84.575 64.955,83.758 66.464,83.560 67.917 C 83.523 68.192,83.653 67.929,83.849 67.333 C 84.045 66.737,84.272 66.137,84.353 66.000 C 84.434 65.862,84.576 65.576,84.667 65.364 C 84.873 64.887,86.429 63.353,86.902 63.162 C 87.142 63.065,87.168 63.018,86.987 63.011 C 86.842 63.005,86.279 63.404,85.737 63.898 M140.944 63.111 C 140.798 63.257,140.823 76.331,140.970 76.703 C 141.032 76.860,141.058 73.880,141.027 70.080 L 140.971 63.172 145.611 63.125 L 150.250 63.078 145.653 63.039 C 143.124 63.018,141.006 63.050,140.944 63.111 M60.500 64.081 C 60.500 64.126,60.803 64.354,61.173 64.587 C 62.645 65.517,63.566 66.570,64.448 68.333 C 64.712 68.861,64.824 68.978,64.828 68.729 C 64.831 68.534,64.721 68.281,64.583 68.167 C 64.446 68.053,64.333 67.869,64.333 67.760 C 64.333 67.249,61.861 64.507,61.395 64.502 C 61.292 64.501,61.114 64.387,61.000 64.250 C 60.802 64.011,60.500 63.909,60.500 64.081 M93.191 65.667 C 93.189 65.987,93.286 66.813,93.406 67.500 L 93.625 68.750 93.639 67.833 C 93.646 67.329,93.550 66.504,93.424 66.000 C 93.224 65.199,93.195 65.157,93.191 65.667 M103.411 75.917 C 103.411 80.867,103.432 82.868,103.458 80.363 C 103.484 77.859,103.484 73.809,103.458 71.363 C 103.432 68.918,103.411 70.967,103.411 75.917 M39.979 67.390 C 40.105 67.542,40.293 67.667,40.398 67.667 C 40.503 67.667,40.868 67.817,41.210 68.000 C 41.552 68.183,41.964 68.326,42.124 68.317 C 42.371 68.303,42.365 68.282,42.083 68.184 C 41.900 68.120,41.375 67.887,40.917 67.666 C 40.458 67.445,40.008 67.230,39.917 67.188 C 39.825 67.147,39.853 67.237,39.979 67.390 M42.760 68.578 C 42.938 68.713,43.233 68.825,43.417 68.827 C 43.683 68.830,43.654 68.781,43.273 68.582 C 42.660 68.263,42.340 68.260,42.760 68.578 M44.944 69.167 C 45.050 69.279,45.500 69.397,45.944 69.429 C 46.651 69.481,46.678 69.472,46.167 69.356 C 45.846 69.284,45.396 69.166,45.167 69.093 C 44.841 68.991,44.792 69.007,44.944 69.167 M64.840 69.355 C 64.836 69.504,64.946 69.895,65.083 70.224 C 65.429 71.052,65.426 75.953,65.079 76.917 C 64.946 77.283,64.843 77.733,64.849 77.917 C 64.856 78.144,64.886 78.171,64.942 78.000 C 64.987 77.862,65.113 77.570,65.221 77.350 C 65.558 76.662,65.485 70.391,65.131 69.667 C 64.974 69.346,64.843 69.205,64.840 69.355 M47.333 69.750 C 47.563 69.881,47.975 69.988,48.250 69.987 C 48.729 69.985,48.722 69.975,48.083 69.745 C 47.223 69.435,46.787 69.438,47.333 69.750 M49.333 70.149 C 49.654 70.225,50.128 70.373,50.386 70.477 C 50.644 70.581,51.056 70.662,51.303 70.655 C 51.872 70.641,50.394 70.194,49.417 70.085 C 48.751 70.011,48.751 70.011,49.333 70.149 M51.896 70.800 C 51.961 70.905,52.330 71.084,52.715 71.199 C 53.481 71.425,53.652 71.532,54.310 72.190 C 55.127 73.006,55.167 73.114,55.167 74.500 C 55.167 75.860,54.517 77.305,53.895 77.327 C 53.792 77.330,53.621 77.438,53.515 77.565 C 53.410 77.692,52.992 77.880,52.588 77.981 C 52.184 78.083,51.807 78.242,51.750 78.333 C 51.615 78.552,51.609 78.553,52.636 78.163 C 54.738 77.364,55.333 76.551,55.333 74.479 L 55.333 73.007 54.449 72.129 C 53.963 71.645,53.307 71.167,52.991 71.066 C 52.675 70.965,52.273 70.821,52.098 70.746 C 51.875 70.651,51.814 70.667,51.896 70.800 M93.706 78.363 C 93.671 84.490,93.698 85.340,93.929 85.571 C 94.153 85.796,94.810 85.833,98.562 85.833 C 103.029 85.833,103.333 85.792,103.333 85.185 C 103.333 84.984,103.293 84.991,103.125 85.221 C 102.936 85.479,102.499 85.502,98.417 85.461 L 93.917 85.417 93.831 78.417 L 93.745 71.417 93.706 78.363 M34.700 75.033 C 34.555 75.178,34.500 76.349,34.500 79.254 C 34.500 83.628,34.591 84.022,35.594 83.989 C 35.889 83.980,35.886 83.967,35.559 83.835 C 34.723 83.497,34.667 83.202,34.667 79.139 C 34.667 75.415,34.673 75.348,35.037 75.093 C 35.296 74.912,35.331 74.833,35.154 74.833 C 35.014 74.833,34.810 74.923,34.700 75.033 M35.833 75.246 C 36.063 75.378,36.362 75.533,36.500 75.590 C 36.637 75.647,36.938 75.779,37.167 75.883 C 37.396 75.987,37.658 76.106,37.750 76.147 C 37.842 76.188,37.818 76.101,37.697 75.954 C 37.576 75.808,37.243 75.637,36.956 75.574 C 36.670 75.511,36.332 75.356,36.206 75.230 C 36.080 75.103,35.850 75.001,35.696 75.002 C 35.496 75.004,35.535 75.073,35.833 75.246 M38.502 76.478 C 38.822 76.649,39.326 76.842,39.623 76.907 C 39.920 76.972,40.206 77.095,40.258 77.179 C 40.310 77.264,40.478 77.333,40.630 77.333 C 41.074 77.333,40.366 76.901,39.676 76.751 C 39.360 76.682,38.999 76.523,38.873 76.396 C 38.746 76.270,38.481 76.167,38.282 76.167 C 37.991 76.167,38.034 76.227,38.502 76.478 M141.178 77.368 C 141.165 77.702,141.971 78.500,142.322 78.500 C 142.456 78.500,142.306 78.309,141.991 78.077 C 141.675 77.844,141.366 77.525,141.303 77.368 C 141.197 77.099,141.189 77.099,141.178 77.368 M41.827 77.673 C 42.328 77.853,42.890 77.991,43.077 77.981 C 43.411 77.962,43.411 77.960,43.083 77.886 C 42.900 77.845,42.514 77.703,42.225 77.572 C 41.936 77.441,41.523 77.336,41.308 77.339 C 41.064 77.343,41.258 77.468,41.827 77.673 M44.000 78.195 C 44.321 78.284,44.808 78.392,45.083 78.435 L 45.583 78.514 45.023 78.257 C 44.714 78.116,44.227 78.008,43.939 78.017 L 43.417 78.034 44.000 78.195 M64.543 78.781 C 64.319 79.264,64.421 79.561,64.673 79.162 C 64.811 78.944,64.899 78.331,64.792 78.335 C 64.769 78.335,64.657 78.536,64.543 78.781 M47.300 78.624 C 48.060 78.655,49.260 78.655,49.966 78.624 C 50.672 78.593,50.050 78.567,48.583 78.567 C 47.117 78.568,46.539 78.593,47.300 78.624 M145.908 78.620 C 150.031 78.691,149.686 78.339,149.628 82.404 L 149.583 85.583 144.092 85.627 C 139.585 85.663,138.446 85.626,137.733 85.419 C 136.517 85.065,136.227 85.124,137.333 85.500 C 138.653 85.948,149.311 85.998,149.751 85.559 C 150.110 85.200,150.065 79.164,149.700 78.800 C 149.538 78.637,148.646 78.581,146.117 78.575 L 142.750 78.567 145.908 78.620 M63.955 80.129 L 63.659 80.750 63.996 80.357 C 64.182 80.140,64.333 79.859,64.333 79.732 C 64.333 79.389,64.280 79.445,63.955 80.129 M131.677 80.417 C 131.671 80.770,131.935 81.294,132.051 81.162 C 132.088 81.119,132.021 80.858,131.901 80.583 C 131.735 80.204,131.681 80.164,131.677 80.417 M63.325 81.203 C 62.430 82.533,61.041 83.662,59.069 84.663 C 58.527 84.938,58.200 85.163,58.343 85.165 C 58.486 85.166,58.749 85.057,58.926 84.922 C 59.104 84.787,59.341 84.675,59.453 84.672 C 60.238 84.651,63.992 81.270,63.631 80.909 C 63.595 80.873,63.457 81.005,63.325 81.203 M132.167 81.533 C 132.167 81.689,132.394 82.153,132.671 82.564 C 133.105 83.206,133.396 83.497,134.417 84.303 C 134.779 84.590,136.170 85.219,136.254 85.135 C 136.303 85.086,135.973 84.886,135.521 84.692 C 134.474 84.241,132.970 82.872,132.517 81.957 C 132.324 81.568,132.167 81.377,132.167 81.533 M36.583 84.333 C 36.950 84.510,37.438 84.655,37.667 84.656 C 37.938 84.656,37.765 84.544,37.167 84.333 C 35.994 83.921,35.729 83.921,36.583 84.333 M38.574 84.922 C 38.751 85.057,39.089 85.163,39.324 85.159 C 39.677 85.153,39.636 85.111,39.083 84.912 C 38.251 84.612,38.166 84.614,38.574 84.922 M40.833 85.500 C 41.337 85.671,42.087 85.807,42.500 85.802 L 43.250 85.792 42.417 85.658 C 41.958 85.585,41.321 85.444,41.001 85.345 C 40.007 85.040,39.865 85.171,40.833 85.500 M57.167 85.366 C 56.938 85.464,56.487 85.601,56.167 85.670 L 55.583 85.795 56.167 85.809 C 56.487 85.816,57.050 85.677,57.417 85.500 C 58.109 85.166,57.899 85.053,57.167 85.366 M43.742 86.017 C 43.921 86.129,44.634 86.241,45.325 86.266 C 46.440 86.306,46.488 86.296,45.750 86.180 C 45.292 86.109,44.579 85.996,44.167 85.931 C 43.537 85.831,43.469 85.845,43.742 86.017 M54.622 85.934 C 54.567 85.989,54.123 86.097,53.636 86.174 L 52.750 86.314 53.875 86.274 C 54.885 86.238,55.976 85.833,55.061 85.833 C 54.875 85.833,54.677 85.878,54.622 85.934 M48.792 86.456 C 49.273 86.490,50.060 86.490,50.542 86.456 C 51.023 86.423,50.629 86.395,49.667 86.395 C 48.704 86.395,48.310 86.423,48.792 86.456 " stroke="none" fill="#5f421b" fill-rule="evenodd"></path><path id="path3" d="M224.639 24.958 C 251.527 24.982,295.477 24.982,322.305 24.958 C 349.133 24.935,327.133 24.916,273.417 24.916 C 219.700 24.916,197.750 24.935,224.639 24.958 M174.708 25.115 C 174.869 25.157,175.131 25.157,175.292 25.115 C 175.452 25.073,175.321 25.039,175.000 25.039 C 174.679 25.039,174.548 25.073,174.708 25.115 M371.375 25.115 C 371.535 25.157,371.798 25.157,371.958 25.115 C 372.119 25.073,371.988 25.039,371.667 25.039 C 371.346 25.039,371.215 25.073,371.375 25.115 M376.250 70.683 C 376.250 93.143,376.299 111.347,376.358 111.135 C 376.503 110.620,376.508 30.496,376.363 30.131 C 376.301 29.974,376.250 48.222,376.250 70.683 M217.350 44.396 C 217.217 44.557,217.175 45.696,217.208 48.188 L 217.257 51.750 217.295 48.158 C 217.322 45.632,217.393 44.507,217.533 44.367 C 217.643 44.257,217.690 44.167,217.637 44.167 C 217.584 44.167,217.455 44.270,217.350 44.396 M226.542 44.347 C 226.803 44.499,226.837 44.885,226.871 48.050 L 226.910 51.583 226.958 48.105 C 227.007 44.651,226.941 44.158,226.438 44.172 C 226.335 44.175,226.381 44.253,226.542 44.347 M73.780 44.442 C 73.446 44.777,73.662 84.828,74.000 85.167 C 74.455 85.621,82.160 85.686,82.796 85.241 L 83.167 84.981 83.171 77.782 C 83.177 68.435,83.251 67.675,84.378 65.417 C 84.725 64.722,86.398 63.001,86.727 62.999 C 86.831 62.998,87.142 62.876,87.417 62.727 C 88.225 62.289,90.407 62.325,91.282 62.791 C 93.677 64.067,93.721 64.292,93.830 75.833 C 93.877 80.921,93.977 85.177,94.052 85.292 C 94.277 85.641,102.931 85.588,103.066 85.236 C 103.310 84.598,103.173 64.409,102.918 63.568 C 102.782 63.118,102.669 62.611,102.668 62.442 C 102.667 62.148,102.539 61.821,101.792 60.200 C 99.034 54.213,90.043 53.439,84.555 58.717 C 83.106 60.110,83.177 60.447,83.127 51.881 L 83.083 44.417 78.489 44.372 C 75.962 44.348,73.843 44.379,73.780 44.442 M112.039 48.122 L 112.083 51.917 116.480 51.961 C 119.618 51.993,120.942 51.951,121.108 51.813 C 121.295 51.657,121.331 50.934,121.295 48.019 L 121.250 44.417 116.622 44.372 L 111.994 44.328 112.039 48.122 M82.873 52.208 C 82.924 61.218,82.808 60.782,84.663 58.917 C 85.257 58.320,85.875 57.790,86.038 57.738 C 86.200 57.686,86.333 57.572,86.333 57.485 C 86.333 57.397,86.502 57.252,86.708 57.163 C 86.915 57.074,87.196 56.930,87.333 56.844 C 90.448 54.891,95.850 55.003,98.904 57.083 C 99.826 57.711,101.333 59.401,101.333 59.806 C 101.333 59.890,101.441 60.049,101.573 60.158 C 101.704 60.267,101.863 60.595,101.925 60.887 C 101.988 61.178,102.135 61.604,102.252 61.833 C 102.810 62.920,102.887 64.356,102.946 74.794 L 103.005 85.172 98.544 85.128 L 94.083 85.083 93.990 75.500 C 93.878 64.078,93.910 64.262,91.833 62.866 C 90.749 62.138,88.288 61.968,87.250 62.551 C 86.975 62.705,86.661 62.832,86.553 62.832 C 86.327 62.833,84.500 64.614,84.500 64.832 C 84.500 64.911,84.390 65.086,84.255 65.221 C 83.193 66.283,82.854 69.271,82.843 77.675 C 82.836 82.958,82.782 84.818,82.633 84.967 C 82.349 85.251,74.484 85.251,74.200 84.967 C 74.047 84.813,74.000 80.070,74.000 64.633 L 74.000 44.500 78.415 44.500 L 82.830 44.500 82.873 52.208 M121.128 48.125 L 121.083 51.750 116.625 51.794 L 112.167 51.839 112.167 48.169 L 112.167 44.500 116.670 44.500 L 121.173 44.500 121.128 48.125 M293.743 51.833 C 293.743 55.913,293.765 57.581,293.792 55.542 C 293.818 53.502,293.818 50.165,293.792 48.125 C 293.765 46.085,293.743 47.754,293.743 51.833 M44.667 45.776 C 37.772 47.298,34.500 51.093,34.500 57.567 C 34.500 64.462,37.899 67.488,48.083 69.661 C 49.000 69.856,50.132 70.125,50.598 70.258 C 51.064 70.391,51.552 70.503,51.681 70.506 C 51.811 70.509,52.217 70.656,52.583 70.833 C 52.950 71.010,53.340 71.158,53.450 71.161 C 53.973 71.176,55.312 72.825,55.427 73.597 C 55.785 75.979,54.924 77.360,52.458 78.360 C 50.571 79.124,44.261 78.751,41.869 77.733 C 41.568 77.605,41.193 77.497,41.036 77.494 C 40.879 77.491,40.450 77.344,40.083 77.167 C 39.717 76.990,39.316 76.842,39.192 76.839 C 39.069 76.836,38.769 76.730,38.526 76.604 C 38.282 76.478,37.708 76.209,37.250 76.006 C 36.792 75.803,36.183 75.520,35.897 75.376 C 34.845 74.847,34.833 74.891,34.833 79.238 C 34.833 83.635,34.844 83.673,36.115 83.912 C 36.437 83.972,36.936 84.120,37.225 84.242 C 39.225 85.080,45.302 86.194,47.583 86.141 L 48.917 86.109 47.500 85.994 C 45.113 85.800,42.792 85.487,41.917 85.241 C 41.458 85.112,40.729 84.963,40.296 84.910 C 39.862 84.857,39.465 84.746,39.414 84.662 C 39.362 84.578,38.946 84.460,38.489 84.400 C 38.033 84.339,37.622 84.229,37.577 84.156 C 37.531 84.082,37.094 83.939,36.605 83.838 C 34.979 83.500,35.000 83.560,35.000 79.238 C 35.000 75.235,35.075 74.897,35.811 75.563 C 35.975 75.712,36.201 75.833,36.313 75.833 C 36.426 75.833,36.795 75.977,37.134 76.152 C 38.422 76.820,40.544 77.665,40.948 77.672 C 41.114 77.675,41.396 77.787,41.574 77.922 C 41.751 78.057,42.110 78.167,42.371 78.167 C 42.631 78.167,43.104 78.275,43.422 78.408 C 44.005 78.652,47.451 79.048,48.834 79.030 C 53.832 78.966,56.316 76.977,55.623 73.593 C 55.406 72.535,54.167 71.000,53.529 71.000 C 53.371 71.000,53.084 70.890,52.892 70.756 C 52.564 70.526,52.284 70.437,50.542 70.008 C 50.152 69.912,49.515 69.752,49.125 69.652 C 48.735 69.553,47.967 69.393,47.417 69.297 C 46.867 69.202,46.180 69.021,45.891 68.895 C 45.603 68.770,45.115 68.666,44.808 68.666 C 44.501 68.665,44.049 68.560,43.803 68.431 C 43.557 68.303,43.107 68.146,42.803 68.082 C 40.358 67.569,36.689 64.814,35.813 62.833 C 35.712 62.604,35.528 62.223,35.404 61.985 C 34.261 59.791,34.641 53.650,36.042 51.671 C 36.202 51.445,36.333 51.198,36.333 51.123 C 36.333 50.878,38.161 48.924,39.053 48.214 C 39.533 47.832,41.916 46.667,42.219 46.667 C 42.386 46.667,42.686 46.579,42.886 46.471 C 44.602 45.551,53.614 45.523,57.206 46.426 C 57.732 46.558,58.378 46.667,58.642 46.667 C 58.907 46.667,59.593 46.817,60.167 47.000 C 60.741 47.183,61.423 47.333,61.683 47.333 C 62.435 47.333,62.500 47.670,62.500 51.572 L 62.500 55.167 62.097 55.167 C 61.875 55.167,61.481 55.060,61.222 54.930 C 60.182 54.408,57.410 53.500,56.858 53.500 C 56.655 53.500,56.229 53.391,55.912 53.259 C 54.288 52.580,47.263 52.571,46.233 53.246 C 46.020 53.386,45.733 53.500,45.597 53.500 C 44.966 53.500,43.696 55.120,43.577 56.078 C 43.207 59.041,44.814 60.410,49.583 61.193 C 50.133 61.283,50.921 61.464,51.333 61.596 C 51.746 61.727,52.317 61.835,52.603 61.834 C 52.889 61.834,53.593 61.983,54.167 62.167 C 54.741 62.350,55.407 62.502,55.647 62.505 C 55.887 62.508,56.229 62.621,56.407 62.755 C 56.585 62.890,56.885 63.003,57.074 63.006 C 57.262 63.009,57.717 63.156,58.083 63.333 C 58.450 63.510,58.872 63.658,59.021 63.661 C 59.170 63.664,59.386 63.779,59.500 63.917 C 59.614 64.054,59.799 64.167,59.910 64.167 C 60.169 64.167,61.942 65.432,62.546 66.048 C 63.427 66.947,64.439 68.728,64.598 69.657 C 64.654 69.983,64.805 70.620,64.933 71.072 C 65.204 72.026,65.244 74.819,64.998 75.668 C 64.905 75.988,64.755 76.714,64.663 77.281 C 64.572 77.848,64.391 78.523,64.261 78.781 C 64.132 79.039,63.851 79.623,63.638 80.079 C 63.155 81.111,60.855 83.447,59.829 83.947 C 58.439 84.625,57.519 85.000,57.248 85.000 C 57.100 85.000,56.814 85.089,56.614 85.197 C 56.195 85.424,53.894 85.804,51.833 85.988 L 50.417 86.114 51.830 86.140 C 55.678 86.212,59.798 84.717,62.083 82.418 C 63.902 80.590,64.530 79.283,65.168 76.000 C 65.371 74.955,65.361 71.720,65.152 70.917 C 65.057 70.550,64.904 69.938,64.813 69.557 C 63.894 65.730,60.062 63.127,53.333 61.759 C 49.350 60.949,47.236 60.466,46.583 60.216 C 45.375 59.752,45.100 59.590,44.475 58.970 C 43.171 57.677,43.484 55.093,45.070 54.055 C 46.604 53.053,51.608 52.560,54.333 53.144 C 54.746 53.232,55.608 53.415,56.250 53.550 C 57.452 53.802,59.926 54.589,61.450 55.205 C 62.839 55.765,62.833 55.780,62.833 51.517 C 62.833 47.587,62.744 47.167,61.913 47.167 C 61.692 47.167,61.190 47.063,60.797 46.937 C 60.018 46.687,57.068 46.142,54.368 45.749 C 52.114 45.422,46.199 45.438,44.667 45.776 M188.137 45.958 C 191.834 45.983,197.834 45.983,201.471 45.958 C 205.108 45.933,202.083 45.913,194.750 45.913 C 187.417 45.913,184.441 45.933,188.137 45.958 M181.077 46.208 C 181.033 46.323,181.017 55.117,181.040 65.750 L 181.083 85.083 181.167 65.542 C 181.213 54.794,181.229 46.000,181.203 46.000 C 181.177 46.000,181.121 46.094,181.077 46.208 M208.292 46.166 C 208.602 46.514,208.588 53.219,208.276 53.478 C 208.121 53.607,205.540 53.677,199.737 53.707 C 192.485 53.744,191.419 53.782,191.403 54.000 C 191.392 54.144,191.414 54.161,191.455 54.042 C 191.509 53.879,193.332 53.833,199.820 53.833 C 207.644 53.833,208.131 53.816,208.391 53.529 C 208.819 53.056,208.805 46.479,208.375 46.153 C 208.127 45.966,208.114 45.968,208.292 46.166 M131.246 48.042 C 131.203 48.156,131.149 50.012,131.126 52.167 L 131.083 56.083 128.917 56.167 L 126.750 56.250 126.705 59.521 L 126.660 62.793 127.038 62.894 C 127.246 62.950,128.252 62.996,129.273 62.998 L 131.130 63.000 131.212 70.292 C 131.346 82.177,132.146 83.987,137.856 85.329 C 139.290 85.665,148.478 85.857,149.236 85.566 C 149.585 85.432,149.637 79.319,149.292 79.039 C 149.173 78.943,147.670 78.842,145.814 78.805 C 140.463 78.699,140.628 78.999,140.701 69.500 L 140.750 63.083 145.417 63.000 C 147.983 62.954,150.177 62.856,150.292 62.782 C 150.549 62.615,150.588 57.254,150.337 56.594 L 150.175 56.167 145.848 56.167 C 143.462 56.167,141.331 56.094,141.097 56.005 L 140.673 55.844 140.628 51.894 C 140.590 48.550,140.545 47.934,140.333 47.876 C 140.151 47.827,140.139 47.848,140.289 47.954 C 140.439 48.060,140.506 49.162,140.539 52.086 L 140.583 56.074 141.000 56.284 C 141.304 56.438,142.601 56.496,145.795 56.498 L 150.174 56.500 150.129 59.625 L 150.083 62.750 145.333 62.833 L 140.583 62.917 140.538 69.750 C 140.474 79.261,140.274 78.936,146.283 79.115 C 149.617 79.214,149.353 78.915,149.296 82.522 L 149.250 85.417 144.451 85.461 C 140.593 85.496,139.460 85.456,138.677 85.253 C 138.140 85.114,137.540 85.000,137.342 85.000 C 137.033 85.000,136.540 84.820,135.333 84.268 C 134.249 83.772,133.197 82.698,132.678 81.559 C 132.475 81.114,132.234 80.611,132.143 80.441 C 131.764 79.739,131.624 77.373,131.555 70.507 C 131.508 65.700,131.423 63.192,131.305 63.049 C 131.177 62.896,130.566 62.833,129.188 62.831 C 126.620 62.827,126.817 63.105,126.871 59.571 L 126.917 56.583 128.917 56.540 C 131.679 56.480,131.500 56.802,131.500 51.910 C 131.500 48.350,131.524 48.018,131.792 47.948 C 132.008 47.892,131.985 47.867,131.703 47.853 C 131.494 47.842,131.288 47.927,131.246 48.042 M219.792 52.125 C 221.006 52.153,222.994 52.153,224.208 52.125 C 225.423 52.096,224.429 52.073,222.000 52.073 C 219.571 52.073,218.577 52.096,219.792 52.125 M283.292 54.790 C 283.773 54.823,284.560 54.823,285.042 54.790 C 285.523 54.756,285.129 54.728,284.167 54.728 C 283.204 54.728,282.810 54.756,283.292 54.790 M254.042 55.289 C 254.477 55.324,255.190 55.324,255.625 55.289 C 256.060 55.255,255.704 55.227,254.833 55.227 C 253.963 55.227,253.606 55.255,254.042 55.289 M325.125 55.290 C 325.698 55.323,326.635 55.323,327.208 55.290 C 327.781 55.258,327.313 55.231,326.167 55.231 C 325.021 55.231,324.552 55.258,325.125 55.290 M367.214 55.290 C 367.745 55.323,368.570 55.323,369.048 55.289 C 369.526 55.256,369.092 55.229,368.083 55.229 C 367.075 55.229,366.684 55.257,367.214 55.290 M257.750 55.588 C 258.585 55.889,258.699 55.888,258.167 55.583 C 257.938 55.452,257.600 55.346,257.417 55.347 C 257.233 55.347,257.383 55.456,257.750 55.588 M322.167 55.502 C 321.991 55.618,322.090 55.634,322.500 55.559 C 323.219 55.427,323.354 55.332,322.819 55.336 C 322.598 55.337,322.304 55.412,322.167 55.502 M329.181 55.393 C 329.219 55.426,329.475 55.503,329.750 55.565 C 330.115 55.647,330.183 55.631,330.000 55.508 C 329.775 55.355,329.013 55.249,329.181 55.393 M364.500 55.583 C 363.968 55.888,364.082 55.889,364.917 55.588 C 365.283 55.456,365.433 55.347,365.250 55.347 C 365.067 55.346,364.729 55.452,364.500 55.583 M112.077 56.042 C 112.033 56.156,112.017 62.850,112.040 70.917 L 112.083 85.583 116.480 85.628 C 119.583 85.659,120.943 85.616,121.105 85.482 C 121.420 85.220,121.449 56.349,121.133 56.033 C 120.840 55.740,112.189 55.748,112.077 56.042 M226.624 56.016 C 226.785 56.222,226.841 59.488,226.875 70.599 L 226.919 84.917 226.959 70.562 C 226.998 57.061,226.983 56.194,226.708 55.979 C 226.450 55.776,226.440 55.780,226.624 56.016 M235.700 56.033 C 235.590 56.143,235.507 56.387,235.517 56.575 C 235.531 56.861,235.552 56.849,235.649 56.500 L 235.765 56.083 240.257 56.039 C 244.333 55.998,244.769 56.021,244.958 56.279 C 245.073 56.436,245.167 56.489,245.167 56.399 C 245.167 55.884,244.731 55.833,240.333 55.833 C 237.107 55.833,235.846 55.888,235.700 56.033 M319.833 56.083 C 319.301 56.388,319.415 56.389,320.250 56.088 C 320.617 55.956,320.767 55.847,320.583 55.847 C 320.400 55.846,320.063 55.952,319.833 56.083 M348.775 55.958 C 348.733 56.027,350.060 56.064,351.724 56.041 C 357.373 55.961,357.929 55.903,353.385 55.868 C 350.892 55.849,348.818 55.890,348.775 55.958 M121.083 70.667 L 121.083 85.250 116.625 85.294 L 112.167 85.339 112.167 70.667 L 112.167 55.995 116.625 56.039 L 121.083 56.083 121.083 70.667 M370.538 59.857 C 370.497 64.112,370.468 64.236,369.613 63.824 C 369.262 63.654,369.261 63.657,369.574 63.907 C 369.964 64.221,370.024 64.224,370.388 63.958 C 370.645 63.770,370.668 63.370,370.625 59.833 L 370.577 55.917 370.538 59.857 M217.246 70.667 C 217.246 78.688,217.267 81.969,217.292 77.958 C 217.316 73.948,217.316 67.385,217.292 63.375 C 217.267 59.365,217.246 62.646,217.246 70.667 M348.540 70.842 C 348.509 82.014,348.547 85.480,348.700 85.633 C 348.848 85.781,350.081 85.823,353.408 85.796 L 357.917 85.758 353.333 85.671 L 348.750 85.583 348.665 70.917 L 348.581 56.250 348.540 70.842 M361.472 56.920 C 361.136 57.141,360.812 57.399,360.753 57.495 C 360.693 57.592,360.987 57.439,361.406 57.157 C 361.824 56.874,362.167 56.611,362.167 56.572 C 362.167 56.468,362.145 56.479,361.472 56.920 M245.201 58.220 L 245.167 59.856 245.625 59.527 C 245.877 59.345,246.308 58.947,246.582 58.640 C 247.034 58.136,247.017 58.143,246.409 58.708 C 245.443 59.605,245.356 59.547,245.291 57.958 L 245.235 56.583 245.201 58.220 M261.167 57.055 C 261.167 57.101,261.467 57.376,261.833 57.667 C 262.200 57.957,262.500 58.157,262.500 58.111 C 262.500 58.066,262.200 57.790,261.833 57.500 C 261.467 57.210,261.167 57.009,261.167 57.055 M316.143 57.843 L 315.750 58.186 316.250 57.894 C 316.908 57.508,316.918 57.500,316.713 57.500 C 316.616 57.500,316.360 57.654,316.143 57.843 M262.906 58.888 C 263.163 59.225,263.407 59.500,263.448 59.500 C 263.564 59.500,262.842 58.525,262.629 58.393 C 262.525 58.329,262.650 58.552,262.906 58.888 M338.152 60.305 C 338.242 60.473,338.446 60.717,338.606 60.847 C 338.786 60.993,338.746 60.877,338.501 60.542 C 338.063 59.944,337.899 59.833,338.152 60.305 M207.208 61.180 C 207.472 61.333,207.500 61.696,207.500 64.917 C 207.500 68.138,207.472 68.500,207.208 68.653 C 207.048 68.747,206.995 68.825,207.092 68.828 C 207.602 68.843,207.667 68.400,207.667 64.917 C 207.667 61.433,207.602 60.990,207.092 61.005 C 206.995 61.008,207.048 61.087,207.208 61.180 M264.422 61.805 C 264.485 61.926,264.596 62.226,264.670 62.471 C 264.778 62.829,264.808 62.849,264.819 62.574 C 264.827 62.385,264.715 62.085,264.571 61.907 C 264.427 61.729,264.360 61.683,264.422 61.805 M286.708 61.948 C 286.869 61.990,287.131 61.990,287.292 61.948 C 287.452 61.906,287.321 61.872,287.000 61.872 C 286.679 61.872,286.548 61.906,286.708 61.948 M288.042 61.948 C 288.202 61.990,288.465 61.990,288.625 61.948 C 288.785 61.906,288.654 61.872,288.333 61.872 C 288.012 61.872,287.881 61.906,288.042 61.948 M328.143 62.170 C 328.543 62.352,328.918 62.497,328.977 62.493 C 329.187 62.479,327.911 61.847,327.667 61.844 C 327.529 61.842,327.744 61.989,328.143 62.170 M250.500 62.652 C 250.237 62.727,250.495 62.767,251.202 62.760 C 251.817 62.755,252.192 62.699,252.035 62.637 C 251.673 62.493,251.036 62.499,250.500 62.652 M329.167 62.544 C 329.167 62.581,329.485 62.864,329.875 63.174 C 330.265 63.483,330.477 63.605,330.348 63.444 C 330.104 63.141,329.167 62.426,329.167 62.544 M364.544 63.120 C 364.797 63.158,365.172 63.157,365.377 63.117 C 365.582 63.078,365.375 63.046,364.917 63.048 C 364.458 63.049,364.291 63.081,364.544 63.120 M366.208 63.115 C 366.369 63.157,366.631 63.157,366.792 63.115 C 366.952 63.073,366.821 63.039,366.500 63.039 C 366.179 63.039,366.048 63.073,366.208 63.115 M363.333 63.333 C 363.111 63.477,363.111 63.495,363.333 63.495 C 363.471 63.495,363.696 63.422,363.833 63.333 C 364.056 63.190,364.056 63.172,363.833 63.172 C 363.696 63.172,363.471 63.244,363.333 63.333 M247.573 64.042 L 247.083 64.583 247.666 64.083 C 247.986 63.808,248.280 63.565,248.319 63.542 C 248.357 63.519,248.315 63.500,248.226 63.500 C 248.136 63.500,247.842 63.744,247.573 64.042 M264.857 63.667 C 264.857 63.804,264.921 64.067,265.000 64.250 C 265.090 64.460,265.143 64.491,265.143 64.333 C 265.143 64.196,265.079 63.933,265.000 63.750 C 264.910 63.540,264.857 63.509,264.857 63.667 M265.205 65.167 C 265.205 65.487,265.240 65.619,265.282 65.458 C 265.323 65.298,265.323 65.035,265.282 64.875 C 265.240 64.715,265.205 64.846,265.205 65.167 M340.673 64.856 C 340.669 64.914,340.776 65.214,340.910 65.523 C 341.044 65.831,341.154 65.971,341.154 65.833 C 341.155 65.593,340.685 64.639,340.673 64.856 M331.178 65.083 C 331.178 65.175,331.286 65.438,331.417 65.667 C 331.548 65.896,331.655 66.008,331.655 65.917 C 331.655 65.825,331.548 65.563,331.417 65.333 C 331.286 65.104,331.178 64.992,331.178 65.083 M310.360 66.090 C 310.254 66.324,310.170 66.643,310.174 66.800 C 310.178 66.956,310.287 66.786,310.416 66.423 C 310.685 65.668,310.650 65.456,310.360 66.090 M245.875 66.708 C 245.696 67.198,245.700 67.219,245.922 66.926 C 246.134 66.647,246.259 66.167,246.120 66.167 C 246.094 66.167,245.984 66.410,245.875 66.708 M271.929 66.595 C 271.867 66.839,271.849 67.071,271.889 67.111 C 271.928 67.150,272.010 66.982,272.071 66.738 C 272.133 66.494,272.151 66.262,272.111 66.223 C 272.072 66.183,271.990 66.351,271.929 66.595 M255.379 67.000 C 255.379 67.412,255.411 67.581,255.451 67.375 C 255.491 67.169,255.491 66.831,255.451 66.625 C 255.411 66.419,255.379 66.587,255.379 67.000 M320.000 66.833 C 320.000 67.017,319.994 67.221,319.987 67.287 C 319.981 67.354,320.058 67.423,320.158 67.442 C 320.259 67.460,320.276 67.441,320.195 67.398 C 320.114 67.356,320.084 67.137,320.127 66.911 C 320.170 66.685,320.159 66.500,320.103 66.500 C 320.046 66.500,320.000 66.650,320.000 66.833 M281.917 67.000 C 281.854 67.197,281.840 67.396,281.886 67.442 C 281.932 67.488,282.021 67.364,282.083 67.167 C 282.146 66.970,282.160 66.771,282.114 66.725 C 282.068 66.679,281.979 66.803,281.917 67.000 M271.709 67.917 C 271.711 68.283,271.745 68.414,271.785 68.206 C 271.824 67.999,271.823 67.699,271.781 67.540 C 271.739 67.380,271.707 67.550,271.709 67.917 M293.348 67.583 C 293.343 67.767,293.411 68.029,293.500 68.167 C 293.714 68.498,293.714 68.082,293.500 67.583 L 293.357 67.250 293.348 67.583 M341.443 68.250 C 341.499 68.617,341.572 68.948,341.605 68.986 C 341.732 69.129,341.637 68.237,341.492 67.917 C 341.387 67.684,341.372 67.785,341.443 68.250 M281.709 68.417 C 281.711 68.783,281.745 68.914,281.785 68.706 C 281.824 68.499,281.823 68.199,281.781 68.040 C 281.739 67.880,281.707 68.050,281.709 68.417 M310.042 68.417 C 310.044 68.783,310.078 68.914,310.118 68.706 C 310.158 68.499,310.156 68.199,310.115 68.040 C 310.073 67.880,310.040 68.050,310.042 68.417 M255.540 76.605 C 255.503 84.708,255.520 85.308,255.792 85.521 C 256.050 85.724,256.059 85.719,255.877 85.485 C 255.719 85.283,255.659 83.145,255.625 76.568 L 255.580 67.917 255.540 76.605 M245.273 69.440 C 245.214 69.865,245.167 73.606,245.167 77.753 C 245.167 83.829,245.124 85.328,244.945 85.477 C 244.798 85.598,243.223 85.677,240.320 85.708 L 235.917 85.756 240.349 85.795 C 244.399 85.830,244.805 85.808,245.047 85.540 C 245.263 85.302,245.608 68.666,245.398 68.667 C 245.387 68.667,245.331 69.015,245.273 69.440 M293.725 70.500 C 293.725 71.279,293.754 71.598,293.789 71.208 C 293.824 70.819,293.824 70.181,293.789 69.792 C 293.754 69.402,293.725 69.721,293.725 70.500 M358.273 69.702 C 358.217 69.912,358.178 70.233,358.186 70.417 C 358.194 70.600,358.269 70.457,358.353 70.100 C 358.515 69.407,358.446 69.058,358.273 69.702 M309.872 70.833 C 309.872 71.154,309.906 71.285,309.948 71.125 C 309.990 70.965,309.990 70.702,309.948 70.542 C 309.906 70.381,309.872 70.512,309.872 70.833 M341.700 71.783 C 341.673 72.886,341.610 73.183,341.375 73.320 C 341.215 73.413,341.168 73.492,341.271 73.495 C 341.701 73.507,341.847 73.010,341.791 71.724 L 341.734 70.417 341.700 71.783 M281.709 72.583 C 281.711 72.950,281.745 73.080,281.785 72.873 C 281.824 72.666,281.823 72.366,281.781 72.206 C 281.739 72.047,281.707 72.217,281.709 72.583 M271.709 73.083 C 271.711 73.450,271.745 73.580,271.785 73.373 C 271.824 73.166,271.823 72.866,271.781 72.706 C 271.739 72.547,271.707 72.717,271.709 73.083 M293.447 72.897 C 293.385 73.060,293.338 73.319,293.344 73.472 C 293.351 73.656,293.409 73.614,293.515 73.348 C 293.604 73.126,293.650 72.868,293.619 72.773 C 293.587 72.678,293.510 72.734,293.447 72.897 M310.042 73.250 C 310.044 73.617,310.078 73.747,310.118 73.540 C 310.158 73.332,310.156 73.032,310.115 72.873 C 310.073 72.714,310.040 72.883,310.042 73.250 M281.838 73.667 C 281.838 73.804,281.911 74.029,282.000 74.167 C 282.144 74.389,282.162 74.389,282.162 74.167 C 282.162 74.029,282.089 73.804,282.000 73.667 C 281.856 73.444,281.838 73.444,281.838 73.667 M319.752 73.663 C 319.644 73.839,320.004 75.218,320.127 75.096 C 320.167 75.055,320.109 74.746,319.997 74.408 C 319.831 73.905,319.836 73.768,320.022 73.649 C 320.173 73.554,320.183 73.504,320.052 73.503 C 319.942 73.501,319.808 73.573,319.752 73.663 M271.857 74.000 C 271.857 74.137,271.921 74.400,272.000 74.583 C 272.090 74.793,272.143 74.824,272.143 74.667 C 272.143 74.529,272.079 74.267,272.000 74.083 C 271.910 73.873,271.857 73.842,271.857 74.000 M310.187 74.833 C 310.184 74.971,310.285 75.308,310.411 75.583 C 310.705 76.227,310.710 75.928,310.417 75.167 C 310.293 74.846,310.190 74.696,310.187 74.833 M310.680 76.676 C 310.673 76.819,310.783 77.082,310.926 77.260 C 311.181 77.578,311.183 77.578,311.032 77.250 C 310.947 77.067,310.837 76.804,310.786 76.667 C 310.706 76.451,310.691 76.452,310.680 76.676 M320.667 76.597 C 320.668 76.681,320.862 76.975,321.098 77.250 L 321.528 77.750 321.151 77.167 C 320.668 76.418,320.667 76.416,320.667 76.597 M339.333 76.685 C 339.127 76.833,339.138 76.847,339.396 76.763 C 340.084 76.539,340.165 76.874,340.204 80.145 L 340.242 83.250 340.291 80.204 C 340.349 76.666,340.187 76.071,339.333 76.685 M333.583 78.923 C 333.308 79.049,333.196 79.152,333.333 79.153 C 333.471 79.154,333.771 79.048,334.000 78.917 C 334.527 78.615,334.245 78.620,333.583 78.923 M288.208 79.115 C 288.369 79.157,288.631 79.157,288.792 79.115 C 288.952 79.073,288.821 79.039,288.500 79.039 C 288.179 79.039,288.048 79.073,288.208 79.115 M331.333 79.417 C 330.555 79.716,330.891 79.722,331.833 79.425 C 332.246 79.295,332.433 79.190,332.250 79.190 C 332.067 79.191,331.654 79.293,331.333 79.417 M312.330 79.995 C 312.524 80.267,312.767 80.543,312.871 80.607 C 312.975 80.671,312.850 80.448,312.594 80.112 C 312.037 79.381,311.827 79.288,312.330 79.995 M326.708 79.790 C 327.327 79.822,328.340 79.822,328.958 79.790 C 329.577 79.758,329.071 79.732,327.833 79.732 C 326.596 79.732,326.090 79.758,326.708 79.790 M275.093 81.750 C 275.863 82.768,276.099 83.023,275.860 82.583 C 275.761 82.400,275.406 81.950,275.071 81.583 L 274.462 80.917 275.093 81.750 M293.728 83.417 C 293.728 84.333,293.756 84.687,293.790 84.203 C 293.824 83.718,293.823 82.968,293.789 82.536 C 293.755 82.104,293.727 82.500,293.728 83.417 M290.850 84.170 C 290.447 84.443,290.180 84.667,290.258 84.667 C 290.409 84.667,291.667 83.828,291.667 83.727 C 291.667 83.624,291.606 83.657,290.850 84.170 M318.407 84.907 C 318.585 85.050,318.847 85.161,318.990 85.154 C 319.215 85.142,319.216 85.128,319.000 85.048 C 318.862 84.997,318.600 84.886,318.417 84.802 C 318.089 84.651,318.089 84.652,318.407 84.907 M191.109 85.243 C 190.977 85.588,181.717 85.634,181.333 85.292 C 181.134 85.114,181.132 85.127,181.320 85.375 C 181.634 85.790,190.828 85.825,191.170 85.413 C 191.286 85.273,191.342 85.120,191.294 85.072 C 191.247 85.025,191.163 85.101,191.109 85.243 M303.109 85.243 C 302.989 85.555,294.097 85.639,293.943 85.329 C 293.896 85.235,293.878 85.254,293.901 85.371 C 293.972 85.720,302.880 85.763,303.168 85.415 C 303.285 85.274,303.342 85.120,303.294 85.072 C 303.247 85.025,303.163 85.101,303.109 85.243 M258.385 85.791 C 259.651 85.820,261.676 85.820,262.885 85.791 C 264.094 85.763,263.058 85.740,260.583 85.740 C 258.108 85.740,257.119 85.763,258.385 85.791 M322.167 86.000 C 322.304 86.089,322.567 86.157,322.750 86.152 L 323.083 86.143 322.750 86.000 C 322.252 85.786,321.835 85.786,322.167 86.000 M331.500 86.000 C 331.165 86.107,331.149 86.134,331.417 86.138 C 331.600 86.141,331.900 86.079,332.083 86.000 C 332.508 85.817,332.070 85.817,331.500 86.000 M283.381 86.290 C 283.912 86.323,284.737 86.323,285.214 86.289 C 285.692 86.256,285.258 86.229,284.250 86.229 C 283.242 86.229,282.851 86.257,283.381 86.290 M323.544 86.286 C 323.797 86.325,324.172 86.324,324.377 86.284 C 324.582 86.244,324.375 86.213,323.917 86.214 C 323.458 86.216,323.291 86.248,323.544 86.286 M329.542 86.286 C 329.794 86.324,330.206 86.324,330.458 86.286 C 330.710 86.248,330.504 86.217,330.000 86.217 C 329.496 86.217,329.290 86.248,329.542 86.286 M224.639 116.458 C 251.527 116.482,295.477 116.482,322.305 116.458 C 349.133 116.435,327.133 116.416,273.417 116.416 C 219.700 116.416,197.750 116.435,224.639 116.458 " stroke="none" fill="#7c7c7c" fill-rule="evenodd"></path><path id="path4" d="M76.292 44.291 C 77.506 44.320,79.494 44.320,80.708 44.291 C 81.923 44.263,80.929 44.239,78.500 44.239 C 76.071 44.239,75.077 44.263,76.292 44.291 M113.667 44.284 C 117.610 44.402,121.295 44.406,121.225 44.292 C 121.182 44.223,119.108 44.182,116.615 44.202 C 114.123 44.221,112.796 44.258,113.667 44.284 M83.128 51.795 C 83.153 55.890,83.228 59.295,83.295 59.362 C 83.362 59.429,83.396 56.133,83.372 52.038 C 83.347 47.943,83.272 44.538,83.205 44.471 C 83.138 44.405,83.104 47.700,83.128 51.795 M111.904 48.083 C 111.904 50.100,111.929 50.902,111.958 49.866 C 111.987 48.829,111.987 47.179,111.958 46.199 C 111.928 45.219,111.904 46.067,111.904 48.083 M47.958 45.457 C 48.715 45.488,49.952 45.488,50.708 45.457 C 51.465 45.426,50.846 45.401,49.333 45.401 C 47.821 45.401,47.202 45.426,47.958 45.457 M208.404 49.833 C 208.404 51.804,208.428 52.610,208.458 51.625 C 208.487 50.640,208.487 49.027,208.458 48.042 C 208.428 47.056,208.404 47.862,208.404 49.833 M133.718 47.791 C 134.984 47.820,137.009 47.820,138.218 47.791 C 139.427 47.763,138.392 47.740,135.917 47.740 C 133.442 47.740,132.452 47.763,133.718 47.791 M140.667 51.877 C 140.730 54.942,140.800 55.899,140.962 55.932 C 141.079 55.956,141.098 55.937,141.004 55.890 C 140.895 55.836,140.833 54.405,140.833 51.913 C 140.833 49.771,140.777 47.985,140.708 47.942 C 140.640 47.900,140.621 49.670,140.667 51.877 M62.871 51.508 C 62.845 54.035,62.774 55.159,62.633 55.300 C 62.481 55.452,62.481 55.500,62.630 55.500 C 62.963 55.500,63.013 54.873,62.960 51.333 L 62.909 47.917 62.871 51.508 M91.625 55.284 C 91.831 55.324,92.169 55.324,92.375 55.284 C 92.581 55.245,92.412 55.212,92.000 55.212 C 91.587 55.212,91.419 55.245,91.625 55.284 M93.625 55.284 C 93.831 55.324,94.169 55.324,94.375 55.284 C 94.581 55.245,94.412 55.212,94.000 55.212 C 93.587 55.212,93.419 55.245,93.625 55.284 M89.500 55.583 C 88.956 55.894,89.146 55.898,89.856 55.590 C 90.164 55.456,90.304 55.346,90.167 55.346 C 90.029 55.345,89.729 55.452,89.500 55.583 M34.396 57.583 C 34.396 58.592,34.424 58.983,34.457 58.452 C 34.490 57.922,34.490 57.097,34.456 56.619 C 34.422 56.141,34.395 56.575,34.396 57.583 M129.003 55.958 C 127.859 55.987,126.868 56.065,126.802 56.130 C 126.736 56.196,127.635 56.227,128.799 56.199 C 129.964 56.171,130.988 56.077,131.075 55.990 C 131.162 55.904,131.200 55.850,131.158 55.869 C 131.117 55.889,130.147 55.929,129.003 55.958 M43.717 56.833 C 43.717 57.337,43.748 57.544,43.786 57.292 C 43.824 57.040,43.824 56.627,43.786 56.375 C 43.748 56.123,43.717 56.329,43.717 56.833 M142.833 56.117 C 146.789 56.235,150.295 56.239,150.225 56.125 C 150.182 56.056,148.145 56.016,145.698 56.035 C 143.252 56.054,141.962 56.091,142.833 56.117 M111.913 70.667 C 111.913 78.688,111.933 81.969,111.958 77.958 C 111.983 73.948,111.983 67.385,111.958 63.375 C 111.933 59.365,111.913 62.646,111.913 70.667 M126.570 59.667 C 126.570 61.454,126.594 62.185,126.624 61.292 C 126.654 60.398,126.654 58.935,126.624 58.042 C 126.594 57.148,126.570 57.879,126.570 59.667 M235.580 71.083 C 235.580 78.967,235.600 82.167,235.625 78.196 C 235.650 74.224,235.650 67.774,235.625 63.862 C 235.600 59.951,235.580 63.200,235.580 71.083 M84.242 58.875 L 83.583 59.583 84.292 58.925 C 84.950 58.312,85.077 58.167,84.950 58.167 C 84.923 58.167,84.605 58.485,84.242 58.875 M46.667 60.250 C 46.896 60.381,47.158 60.488,47.250 60.488 C 47.342 60.488,47.229 60.381,47.000 60.250 C 46.771 60.119,46.508 60.012,46.417 60.012 C 46.325 60.012,46.438 60.119,46.667 60.250 M89.044 62.453 C 89.297 62.491,89.672 62.490,89.877 62.451 C 90.082 62.411,89.875 62.380,89.417 62.381 C 88.958 62.382,88.791 62.415,89.044 62.453 M140.743 63.209 C 140.699 63.324,140.682 66.342,140.706 69.917 L 140.750 76.417 140.833 69.708 C 140.879 66.019,140.896 63.000,140.870 63.000 C 140.844 63.000,140.787 63.094,140.743 63.209 M85.406 64.042 L 84.917 64.583 85.458 64.094 C 85.756 63.825,86.000 63.581,86.000 63.552 C 86.000 63.423,85.862 63.537,85.406 64.042 M103.245 75.083 C 103.245 80.583,103.266 82.809,103.292 80.030 C 103.317 77.250,103.317 72.750,103.292 70.030 C 103.266 67.309,103.245 69.583,103.245 75.083 M83.694 66.924 C 83.414 67.537,83.468 67.667,83.770 67.110 C 83.911 66.850,83.995 66.606,83.957 66.568 C 83.919 66.530,83.800 66.690,83.694 66.924 M93.731 69.500 C 93.731 70.646,93.758 71.115,93.790 70.542 C 93.823 69.969,93.823 69.031,93.790 68.458 C 93.758 67.885,93.731 68.354,93.731 69.500 M83.207 77.449 L 83.167 84.981 82.796 85.241 C 82.593 85.383,82.506 85.500,82.604 85.500 C 83.320 85.500,83.339 85.275,83.292 77.402 L 83.246 69.917 83.207 77.449 M55.387 74.500 C 55.387 75.096,55.417 75.340,55.454 75.042 C 55.491 74.744,55.491 74.256,55.454 73.958 C 55.417 73.660,55.387 73.904,55.387 74.500 M34.851 75.229 C 34.717 75.390,34.675 76.594,34.708 79.271 L 34.757 83.083 34.795 79.203 C 34.833 75.351,34.836 75.321,35.208 75.172 C 35.462 75.070,35.496 75.018,35.312 75.011 C 35.163 75.005,34.955 75.103,34.851 75.229 M131.220 76.667 C 131.220 77.262,131.250 77.506,131.287 77.208 C 131.324 76.910,131.324 76.423,131.287 76.125 C 131.250 75.827,131.220 76.071,131.220 76.667 M48.121 78.787 C 48.417 78.824,48.942 78.824,49.288 78.788 C 49.634 78.752,49.392 78.722,48.750 78.721 C 48.108 78.721,47.825 78.750,48.121 78.787 M146.238 78.792 C 147.967 78.822,149.145 78.912,149.280 79.025 C 149.557 79.255,149.604 85.421,149.329 85.557 C 149.235 85.604,149.254 85.622,149.371 85.599 C 149.532 85.566,149.594 84.799,149.629 82.420 C 149.688 78.338,149.975 78.655,146.266 78.704 L 143.417 78.741 146.238 78.792 M62.077 82.542 L 61.250 83.417 62.125 82.590 C 62.606 82.135,63.000 81.741,63.000 81.715 C 63.000 81.590,62.846 81.729,62.077 82.542 M137.417 85.333 C 137.600 85.412,137.862 85.477,138.000 85.477 C 138.158 85.477,138.127 85.424,137.917 85.333 C 137.733 85.255,137.471 85.190,137.333 85.190 C 137.176 85.190,137.207 85.243,137.417 85.333 M47.297 86.290 C 47.782 86.324,48.532 86.323,48.964 86.289 C 49.396 86.255,49.000 86.227,48.083 86.228 C 47.167 86.228,46.813 86.256,47.297 86.290 M50.713 86.289 C 51.152 86.324,51.827 86.323,52.213 86.288 C 52.600 86.254,52.242 86.225,51.417 86.226 C 50.592 86.226,50.275 86.255,50.713 86.289 " stroke="none" fill="#747474" fill-rule="evenodd"></path><path id="path5" d="M74.000 64.633 C 74.000 80.070,74.047 84.813,74.200 84.967 C 74.484 85.251,82.349 85.251,82.633 84.967 C 82.783 84.817,82.833 82.961,82.833 77.640 C 82.833 70.283,82.997 67.890,83.594 66.542 C 84.265 65.025,84.480 64.684,85.263 63.895 C 87.823 61.317,92.809 61.832,93.429 64.738 C 93.489 65.020,93.624 65.355,93.728 65.484 C 93.862 65.649,93.941 68.542,94.000 75.400 L 94.083 85.083 98.500 85.083 L 102.917 85.083 102.960 75.024 C 102.996 66.456,102.965 64.840,102.751 64.119 C 102.613 63.654,102.500 63.064,102.500 62.809 C 102.500 61.758,101.162 59.194,99.997 58.011 C 99.075 57.076,97.280 56.005,96.616 55.994 C 96.415 55.991,96.063 55.881,95.833 55.750 C 95.525 55.574,94.789 55.512,93.000 55.512 C 91.211 55.512,90.475 55.574,90.167 55.750 C 89.938 55.881,89.585 55.991,89.383 55.994 C 88.954 56.001,86.742 57.135,86.062 57.696 C 85.804 57.909,85.128 58.521,84.559 59.056 C 82.813 60.699,82.924 61.150,82.873 52.206 L 82.830 44.500 78.415 44.500 L 74.000 44.500 74.000 64.633 M112.167 48.169 L 112.167 51.839 116.625 51.794 L 121.083 51.750 121.128 48.125 L 121.173 44.500 116.670 44.500 L 112.167 44.500 112.167 48.169 M45.583 45.920 C 45.125 46.038,44.465 46.142,44.117 46.151 C 43.768 46.159,43.278 46.273,43.028 46.402 C 42.777 46.532,42.293 46.690,41.953 46.754 C 41.612 46.818,41.333 46.931,41.333 47.005 C 41.333 47.079,41.114 47.188,40.845 47.247 C 40.576 47.306,40.267 47.462,40.158 47.594 C 40.049 47.726,39.868 47.833,39.756 47.833 C 39.123 47.833,36.706 50.355,36.064 51.686 C 35.341 53.185,35.195 53.618,34.934 55.030 C 34.409 57.872,34.772 60.940,35.859 62.833 C 35.938 62.971,36.092 63.271,36.203 63.500 C 36.452 64.019,38.495 66.059,39.067 66.360 C 41.971 67.890,44.390 68.726,47.217 69.177 C 47.749 69.262,48.326 69.407,48.500 69.500 C 48.674 69.593,49.251 69.735,49.783 69.816 C 50.315 69.897,51.012 70.057,51.333 70.171 C 51.654 70.284,52.361 70.536,52.903 70.730 C 55.023 71.489,56.140 73.405,55.652 75.445 C 55.350 76.709,54.176 78.167,53.460 78.167 C 53.340 78.167,53.081 78.279,52.885 78.416 C 52.479 78.700,48.823 79.225,48.177 79.091 C 47.942 79.043,46.914 78.927,45.892 78.833 C 44.870 78.740,43.766 78.552,43.439 78.415 C 43.112 78.278,42.631 78.167,42.371 78.167 C 42.110 78.167,41.751 78.057,41.574 77.922 C 41.396 77.787,41.061 77.675,40.831 77.672 C 40.600 77.669,40.132 77.517,39.790 77.333 C 39.448 77.150,39.027 77.000,38.854 77.000 C 38.682 77.000,38.447 76.887,38.333 76.750 C 38.219 76.612,38.020 76.500,37.892 76.500 C 37.763 76.500,37.127 76.238,36.478 75.917 C 35.830 75.597,35.232 75.376,35.150 75.427 C 34.972 75.537,34.950 82.842,35.128 83.083 C 35.322 83.348,35.936 83.649,36.619 83.817 C 36.966 83.901,37.475 84.047,37.750 84.140 C 39.125 84.605,40.627 85.005,40.994 85.002 C 41.221 85.001,41.708 85.105,42.078 85.233 C 44.698 86.141,54.907 86.115,56.614 85.196 C 56.814 85.088,57.106 85.000,57.262 85.000 C 57.520 85.000,58.701 84.515,59.333 84.149 C 59.471 84.070,59.835 83.892,60.143 83.754 C 60.897 83.415,63.109 81.179,63.415 80.446 C 63.551 80.121,63.738 79.809,63.831 79.752 C 63.924 79.694,64.003 79.520,64.006 79.365 C 64.009 79.210,64.156 78.783,64.333 78.417 C 64.510 78.050,64.658 77.547,64.661 77.300 C 64.664 77.052,64.779 76.418,64.917 75.890 C 65.231 74.682,65.239 72.316,64.933 71.239 C 64.804 70.787,64.649 70.060,64.589 69.625 C 64.529 69.190,64.417 68.833,64.341 68.833 C 64.265 68.833,64.155 68.641,64.096 68.407 C 63.751 67.035,61.576 64.918,59.583 64.017 C 59.125 63.810,58.442 63.496,58.065 63.320 C 57.688 63.144,57.252 63.000,57.096 63.000 C 56.939 63.000,56.653 62.915,56.459 62.812 C 56.088 62.613,54.703 62.264,53.167 61.982 C 52.663 61.889,51.868 61.706,51.402 61.573 C 50.936 61.441,50.327 61.333,50.049 61.333 C 49.771 61.333,49.074 61.183,48.500 61.000 C 47.926 60.817,47.293 60.667,47.093 60.667 C 46.894 60.667,46.585 60.557,46.407 60.422 C 46.229 60.287,45.959 60.175,45.807 60.172 C 45.214 60.161,43.856 58.870,43.655 58.127 C 42.565 54.098,45.827 52.221,52.899 52.807 C 54.192 52.915,55.550 53.111,55.917 53.244 C 56.283 53.377,56.797 53.489,57.058 53.493 C 57.319 53.497,57.769 53.599,58.058 53.721 C 58.936 54.090,60.224 54.526,60.703 54.617 C 60.952 54.664,61.243 54.807,61.348 54.935 C 61.454 55.062,61.757 55.167,62.020 55.167 L 62.500 55.167 62.500 51.572 C 62.500 47.557,62.451 47.333,61.572 47.333 C 61.252 47.333,60.719 47.220,60.388 47.082 C 60.057 46.944,59.366 46.787,58.852 46.734 C 58.337 46.681,57.579 46.538,57.167 46.417 C 56.754 46.296,55.742 46.153,54.917 46.101 C 54.092 46.048,53.155 45.929,52.834 45.836 C 52.005 45.595,46.605 45.658,45.583 45.920 M131.500 51.880 C 131.500 56.786,131.644 56.500,129.171 56.500 C 126.609 56.500,126.833 56.196,126.833 59.667 C 126.833 63.150,126.582 62.833,129.344 62.833 C 131.768 62.833,131.481 61.819,131.563 70.667 C 131.599 74.638,131.709 78.263,131.812 78.917 C 131.986 80.026,132.119 80.396,132.881 81.894 C 133.377 82.867,134.367 83.826,135.333 84.268 C 136.576 84.837,137.047 85.000,137.449 85.002 C 137.706 85.003,138.329 85.115,138.833 85.250 C 139.538 85.439,140.837 85.497,144.462 85.498 L 149.174 85.500 149.129 82.375 L 149.083 79.250 146.250 79.147 C 140.268 78.930,140.474 79.269,140.538 69.750 L 140.583 62.917 145.333 62.827 C 147.946 62.777,150.104 62.721,150.129 62.702 C 150.154 62.682,150.154 61.298,150.129 59.625 L 150.083 56.583 145.567 56.500 C 142.080 56.436,140.988 56.365,140.775 56.188 C 140.533 55.987,140.500 55.476,140.500 51.980 L 140.500 48.000 136.000 48.000 L 131.500 48.000 131.500 51.880 M112.167 70.750 L 112.167 85.333 116.566 85.333 C 120.423 85.333,120.977 85.301,121.066 85.070 C 121.121 84.925,121.167 78.362,121.167 70.486 L 121.167 56.167 116.667 56.167 L 112.167 56.167 112.167 70.750 " stroke="none" fill="#ffffff" fill-rule="evenodd"></path><path id="path6" d="M174.699 25.153 C 174.212 25.213,173.762 25.342,173.699 25.441 C 173.635 25.541,173.428 25.670,173.238 25.729 C 172.567 25.939,171.002 27.785,170.999 28.372 C 170.998 28.488,170.867 28.808,170.707 29.083 C 170.256 29.860,170.256 111.307,170.707 112.083 C 170.867 112.358,170.998 112.705,170.999 112.855 C 171.000 113.004,171.112 113.219,171.250 113.333 C 171.387 113.447,171.500 113.616,171.500 113.709 C 171.500 113.898,172.891 115.333,173.073 115.333 C 173.138 115.333,173.303 115.446,173.440 115.583 C 173.578 115.721,173.875 115.833,174.101 115.833 C 174.326 115.833,174.780 115.946,175.109 116.083 C 176.020 116.464,370.814 116.464,371.724 116.083 C 372.053 115.946,372.478 115.833,372.668 115.833 C 373.215 115.833,375.333 114.150,375.333 113.715 C 375.333 113.622,375.471 113.366,375.638 113.147 C 376.355 112.213,376.358 111.982,376.289 69.917 C 376.223 29.605,376.206 28.515,375.616 27.925 C 375.460 27.770,375.333 27.545,375.333 27.424 C 375.333 27.137,374.025 25.833,373.737 25.833 C 373.614 25.833,373.356 25.665,373.164 25.458 L 372.814 25.083 274.199 25.064 C 219.960 25.054,175.185 25.094,174.699 25.153 M226.822 44.403 C 227.051 44.679,227.010 51.713,226.778 51.945 C 226.484 52.239,217.732 52.208,217.436 51.912 C 217.090 51.566,217.026 44.707,217.367 44.367 C 217.683 44.050,226.558 44.085,226.822 44.403 M303.292 64.732 C 303.323 79.730,303.284 85.275,303.147 85.440 C 302.997 85.621,302.048 85.667,298.475 85.667 L 293.992 85.667 293.829 85.239 C 293.740 85.004,293.667 84.106,293.667 83.243 L 293.667 81.675 292.329 83.014 C 291.593 83.751,290.749 84.467,290.454 84.605 C 290.158 84.743,289.579 85.034,289.167 85.252 C 288.754 85.469,288.154 85.697,287.833 85.757 C 287.512 85.818,286.929 85.973,286.536 86.101 C 285.603 86.405,282.892 86.403,281.964 86.099 C 281.571 85.969,280.987 85.810,280.667 85.744 C 280.346 85.678,279.935 85.521,279.755 85.395 C 279.574 85.270,279.332 85.167,279.218 85.167 C 277.682 85.167,273.290 79.957,272.748 77.492 C 272.686 77.209,272.530 76.776,272.402 76.530 C 272.274 76.285,272.167 75.858,272.166 75.583 C 272.164 75.308,272.051 74.715,271.915 74.265 C 271.566 73.116,271.566 67.884,271.915 66.735 C 272.051 66.285,272.164 65.692,272.166 65.417 C 272.167 65.142,272.274 64.715,272.402 64.470 C 272.530 64.224,272.686 63.791,272.748 63.508 C 272.874 62.935,273.897 60.896,274.264 60.487 C 274.394 60.342,274.500 60.165,274.500 60.093 C 274.500 59.417,278.469 55.833,279.218 55.833 C 279.332 55.833,279.574 55.730,279.755 55.605 C 279.935 55.479,280.346 55.322,280.667 55.256 C 280.987 55.190,281.571 55.031,281.964 54.901 C 282.796 54.628,285.280 54.596,286.250 54.847 C 286.617 54.941,287.217 55.091,287.583 55.180 C 287.950 55.269,288.475 55.447,288.750 55.577 C 289.025 55.706,289.362 55.857,289.500 55.913 C 290.333 56.248,291.474 57.115,292.625 58.290 L 293.667 59.352 293.667 51.960 C 293.667 46.380,293.716 44.517,293.869 44.364 C 294.021 44.213,295.231 44.173,298.661 44.206 L 303.250 44.250 303.292 64.732 M208.296 46.093 C 208.798 46.444,208.881 52.987,208.391 53.529 C 208.131 53.816,207.645 53.833,199.827 53.833 L 191.539 53.833 191.438 54.208 C 191.383 54.415,191.338 55.858,191.338 57.417 C 191.338 58.975,191.383 60.419,191.438 60.625 L 191.539 61.000 199.403 61.000 C 205.297 61.000,207.317 61.050,207.467 61.200 C 207.770 61.503,207.748 68.391,207.443 68.645 C 207.288 68.774,204.815 68.843,199.318 68.873 L 191.417 68.917 191.373 77.068 C 191.343 82.749,191.274 85.287,191.145 85.443 C 190.772 85.893,181.581 85.756,181.259 85.296 C 180.836 84.691,180.867 46.261,181.292 46.013 C 181.829 45.701,207.846 45.777,208.296 46.093 M257.000 55.327 C 260.282 55.800,264.291 59.081,264.339 61.332 C 264.342 61.470,264.454 61.729,264.589 61.907 C 264.723 62.085,264.834 62.460,264.835 62.740 C 264.836 63.021,264.949 63.618,265.085 64.068 C 265.471 65.339,265.456 85.584,265.070 85.732 C 264.443 85.973,256.251 85.841,255.885 85.584 C 255.530 85.335,255.529 85.321,255.473 75.543 L 255.417 65.750 255.001 64.936 C 253.328 61.660,248.135 62.155,246.436 65.752 C 245.747 67.211,245.669 67.468,245.504 68.829 C 245.410 69.606,245.333 73.612,245.333 77.733 C 245.333 84.469,245.306 85.254,245.058 85.529 C 244.735 85.884,236.462 86.003,235.822 85.661 C 235.423 85.447,235.303 56.430,235.700 56.033 C 235.846 55.888,237.110 55.833,240.346 55.833 C 245.586 55.833,245.222 55.685,245.308 57.859 C 245.371 59.435,245.510 59.634,246.099 58.982 C 248.660 56.145,252.875 54.732,257.000 55.327 M328.833 55.333 C 331.688 55.725,333.541 56.442,335.933 58.081 C 336.645 58.569,338.802 60.805,338.920 61.178 C 338.976 61.355,339.085 61.500,339.162 61.500 C 339.238 61.500,339.383 61.706,339.485 61.958 C 339.586 62.210,339.842 62.722,340.055 63.095 C 341.198 65.105,342.365 72.409,341.675 73.240 C 341.484 73.470,340.251 73.500,330.855 73.503 C 325.022 73.504,320.154 73.566,320.038 73.640 C 319.248 74.141,321.453 78.173,322.750 78.601 C 322.933 78.662,323.121 78.762,323.167 78.824 C 323.732 79.584,329.644 80.013,331.333 79.417 C 331.723 79.279,332.233 79.167,332.468 79.167 C 333.033 79.167,335.437 78.401,336.917 77.749 C 337.192 77.628,337.923 77.297,338.542 77.014 C 340.343 76.191,340.339 76.183,340.317 80.114 C 340.297 83.560,340.245 83.849,339.609 84.019 C 339.354 84.088,339.056 84.217,338.948 84.307 C 338.839 84.397,338.457 84.525,338.099 84.592 C 337.741 84.659,337.253 84.815,337.016 84.939 C 336.778 85.063,336.379 85.165,336.128 85.166 C 335.878 85.166,335.391 85.276,335.045 85.410 C 334.699 85.543,333.892 85.730,333.250 85.824 C 332.608 85.918,331.676 86.077,331.178 86.178 C 330.020 86.410,322.783 86.300,322.083 86.039 C 321.808 85.936,321.246 85.781,320.833 85.694 C 319.065 85.320,316.258 83.987,315.162 83.000 C 315.009 82.862,314.591 82.487,314.234 82.167 C 313.463 81.476,312.094 79.756,311.844 79.167 C 311.747 78.938,311.598 78.637,311.514 78.500 C 311.125 77.868,310.667 76.794,310.667 76.515 C 310.667 76.346,310.558 75.947,310.425 75.629 C 309.826 74.195,309.830 67.135,310.430 65.974 C 310.560 65.723,310.667 65.365,310.667 65.180 C 310.667 64.995,310.807 64.560,310.978 64.213 C 311.150 63.867,311.436 63.283,311.614 62.917 C 312.121 61.875,312.685 61.000,312.850 61.000 C 312.932 61.000,313.000 60.925,313.000 60.833 C 313.000 60.449,315.717 57.987,316.699 57.481 C 318.224 56.696,318.661 56.491,319.333 56.245 C 319.746 56.095,320.489 55.900,320.985 55.813 C 321.480 55.725,321.968 55.601,322.068 55.536 C 322.555 55.220,327.037 55.086,328.833 55.333 M370.367 55.466 C 370.792 55.891,370.765 63.769,370.338 63.997 C 370.074 64.139,369.888 64.124,369.539 63.932 C 365.972 61.974,361.122 63.371,359.292 66.884 C 358.949 67.544,358.665 68.271,358.661 68.500 C 358.658 68.729,358.546 69.367,358.413 69.917 C 358.222 70.710,358.171 72.416,358.169 78.175 C 358.167 83.595,358.116 85.484,357.967 85.633 C 357.682 85.918,348.985 85.918,348.700 85.633 C 348.435 85.368,348.408 56.649,348.673 56.156 C 348.885 55.759,357.578 55.645,357.967 56.033 C 358.099 56.165,358.167 56.874,358.167 58.117 C 358.167 59.261,358.232 60.000,358.333 60.000 C 358.425 60.000,358.500 59.934,358.500 59.854 C 358.500 59.056,362.070 56.417,364.167 55.665 C 365.565 55.163,369.924 55.023,370.367 55.466 M226.800 56.033 C 227.021 56.255,227.071 84.377,226.851 85.167 L 226.735 85.583 222.159 85.628 C 218.005 85.668,217.564 85.646,217.375 85.388 C 217.078 84.982,217.070 56.330,217.367 56.033 C 217.652 55.748,226.515 55.748,226.800 56.033 M287.000 61.996 C 283.728 62.570,282.305 64.471,281.790 68.958 C 281.550 71.057,282.022 74.958,282.605 75.683 C 282.708 75.811,282.844 76.086,282.908 76.292 C 283.450 78.063,287.941 79.891,289.221 78.863 C 289.328 78.776,289.668 78.651,289.975 78.586 C 290.661 78.439,292.442 76.718,292.602 76.046 C 292.663 75.791,292.789 75.486,292.882 75.368 C 293.252 74.900,293.556 72.699,293.556 70.500 C 293.556 68.301,293.252 66.100,292.882 65.632 C 292.789 65.514,292.663 65.209,292.602 64.954 C 292.211 63.317,289.034 61.640,287.000 61.996 M324.500 61.989 C 322.161 62.704,320.532 64.421,320.180 66.545 C 320.010 67.577,319.636 67.519,326.167 67.463 L 331.583 67.417 331.635 66.879 C 331.926 63.871,327.737 61.001,324.500 61.989 " stroke="none" fill="#ff9900" fill-rule="evenodd"></path></g></svg>