<?xml version="1.0" standalone="no"?>
<!DOCTYPE svg PUBLIC "-//W3C//DTD SVG 20010904//EN"
 "http://www.w3.org/TR/2001/REC-SVG-20010904/DTD/svg10.dtd">
<svg version="1.0" xmlns="http://www.w3.org/2000/svg"
 width="512.000000pt" height="512.000000pt" viewBox="0 0 512.000000 512.000000"
 preserveAspectRatio="xMidYMid meet">

<g transform="translate(0.000000,512.000000) scale(0.100000,-0.100000)"
fill="#000000" stroke="none">
<path d="M2876 4393 c-13 -176 -69 -315 -161 -402 -104 -98 -221 -137 -460
-151 -176 -10 -261 -29 -380 -84 -272 -126 -495 -390 -566 -669 -11 -46 -12
-47 -53 -47 -74 0 -179 -29 -266 -71 -276 -137 -415 -470 -316 -762 14 -42 26
-81 26 -85 0 -4 -20 -20 -44 -35 -60 -38 -174 -160 -220 -235 -157 -259 -152
-592 14 -845 113 -174 269 -285 485 -345 55 -16 195 -17 1625 -17 1430 0 1570
1 1625 17 216 60 372 171 485 345 166 253 171 586 14 845 -46 75 -160 197
-220 235 -24 15 -44 31 -44 35 0 4 12 43 26 85 99 292 -40 625 -316 762 -110
54 -194 71 -352 71 -71 0 -128 2 -128 5 0 2 15 28 34 57 232 364 201 729 -90
1038 -172 183 -423 314 -643 336 l-68 6 -7 -89z"/>
</g>
</svg>
